<mxfile host="app.diagrams.net" modified="2022-10-04T20:10:13.628Z" agent="5.0 (Windows)" etag="n6DVMTC5RWBklbJbUD3Y" version="20.4.0" type="github">
  <diagram name="Page-1" id="c7558073-3199-34d8-9f00-42111426c3f3">
    <mxGraphModel dx="1422" dy="752" grid="1" gridSize="10" guides="1" tooltips="1" connect="1" arrows="1" fold="1" page="1" pageScale="1" pageWidth="826" pageHeight="1169" background="none" math="0" shadow="0">
      <root>
        <mxCell id="0" />
        <mxCell id="1" parent="0" />
        <mxCell id="OoRH-c_TX8An31oA8qig-122" value="" style="edgeStyle=orthogonalEdgeStyle;rounded=0;orthogonalLoop=1;jettySize=auto;html=1;" edge="1" parent="1" source="OoRH-c_TX8An31oA8qig-106" target="OoRH-c_TX8An31oA8qig-151">
          <mxGeometry relative="1" as="geometry">
            <mxPoint x="590" y="286.5" as="targetPoint" />
          </mxGeometry>
        </mxCell>
        <mxCell id="OoRH-c_TX8An31oA8qig-106" value="search file" style="shape=image;verticalLabelPosition=bottom;labelBackgroundColor=#ffffff;verticalAlign=top;aspect=fixed;imageAspect=0;image=data:image/svg+xml,PHN2ZyB4bWxuczpjYz0iaHR0cDovL2NyZWF0aXZlY29tbW9ucy5vcmcvbnMjIiB4bWxuczpkYz0iaHR0cDovL3B1cmwub3JnL2RjL2VsZW1lbnRzLzEuMS8iIHhtbG5zOmlua3NjYXBlPSJodHRwOi8vd3d3Lmlua3NjYXBlLm9yZy9uYW1lc3BhY2VzL2lua3NjYXBlIiB4bWxuczpyZGY9Imh0dHA6Ly93d3cudzMub3JnLzE5OTkvMDIvMjItcmRmLXN5bnRheC1ucyMiIHhtbG5zOnNvZGlwb2RpPSJodHRwOi8vc29kaXBvZGkuc291cmNlZm9yZ2UubmV0L0RURC9zb2RpcG9kaS0wLmR0ZCIgeG1sbnM6c3ZnPSJodHRwOi8vd3d3LnczLm9yZy8yMDAwL3N2ZyIgeG1sbnM9Imh0dHA6Ly93d3cudzMub3JnLzIwMDAvc3ZnIiB4bWxuczp4bGluaz0iaHR0cDovL3d3dy53My5vcmcvMTk5OS94bGluayIgdmVyc2lvbj0iMS4xIiBpZD0ic3ZnMTAxMTA1IiBpbmtzY2FwZTp2ZXJzaW9uPSIwLjkyLjMgKDI0MDU1NDYsIDIwMTgtMDMtMTEpIiBzb2RpcG9kaTpkb2NuYW1lPSJzaGFyZV9mb2xkZXIuc3ZnIiB4PSIwcHgiIHk9IjBweCIgdmlld0JveD0iMCAwIDQyLjY0IDMzLjA5IiBzdHlsZT0iZW5hYmxlLWJhY2tncm91bmQ6bmV3IDAgMCA0Mi42NCAzMy4wOTsiIHhtbDpzcGFjZT0icHJlc2VydmUiPiYjeGE7PHNvZGlwb2RpOm5hbWVkdmlldyBib3JkZXJjb2xvcj0iIzY2NjY2NiIgYm9yZGVyb3BhY2l0eT0iMSIgZml0LW1hcmdpbi1ib3R0b209IjAiIGZpdC1tYXJnaW4tbGVmdD0iMCIgZml0LW1hcmdpbi1yaWdodD0iMCIgZml0LW1hcmdpbi10b3A9IjAiIGdyaWR0b2xlcmFuY2U9IjEwIiBndWlkZXRvbGVyYW5jZT0iMTAiIGlkPSJuYW1lZHZpZXcxMDExMDciIGlua3NjYXBlOmN1cnJlbnQtbGF5ZXI9InN2ZzEwMTEwNSIgaW5rc2NhcGU6Y3g9IjI4LjQyODY3NCIgaW5rc2NhcGU6Y3k9IjIyLjA2Mjk1MSIgaW5rc2NhcGU6cGFnZW9wYWNpdHk9IjAiIGlua3NjYXBlOnBhZ2VzaGFkb3c9IjIiIGlua3NjYXBlOndpbmRvdy1oZWlnaHQ9IjEwMTciIGlua3NjYXBlOndpbmRvdy1tYXhpbWl6ZWQ9IjEiIGlua3NjYXBlOndpbmRvdy13aWR0aD0iMTkyMCIgaW5rc2NhcGU6d2luZG93LXg9Ii04IiBpbmtzY2FwZTp3aW5kb3cteT0iLTgiIGlua3NjYXBlOnpvb209IjE5LjY1MzUzMiIgb2JqZWN0dG9sZXJhbmNlPSIxMCIgcGFnZWNvbG9yPSIjZmZmZmZmIiBzaG93Z3JpZD0iZmFsc2UiPiYjeGE7CTwvc29kaXBvZGk6bmFtZWR2aWV3PiYjeGE7PGcgaWQ9ImcxMDExMDMiIHRyYW5zZm9ybT0idHJhbnNsYXRlKDAuMDA0NTM3OTIsMC4wMDM0OCkiPiYjeGE7CTx0aXRsZSBpZD0idGl0bGUxMDEwNjgiPlBhZ2UtMTwvdGl0bGU+JiN4YTsJPGcgaWQ9Imdyb3VwNTQzMC0xIj4mI3hhOwkJPHRpdGxlIGlkPSJ0aXRsZTEwMTA3MCI+U2hhcmUgRm9sZGVyPC90aXRsZT4mI3hhOwkJPGcgaWQ9InNoYXBlNTQzMS0yIiB0cmFuc2Zvcm09InRyYW5zbGF0ZSgwLjQ5MTcxOCwtMy4wNjM0OCkiPiYjeGE7CQkJPHRpdGxlIGlkPSJ0aXRsZTEwMTA3MiI+U2hlZXQuNTQzMTwvdGl0bGU+JiN4YTsJCQk8cGF0aCBpZD0icGF0aDEwMTA3NCIgaW5rc2NhcGU6Y29ubmVjdG9yLWN1cnZhdHVyZT0iMCIgc3R5bGU9ImZpbGw6IzNGNTc2NTsiIGQ9Ik0xLjUzLDMxLjU1QzAsMzMuMDksMCwzMy4wOSwwLDMzLjA5ICAgICBDMCw1LjQsMCw1LjQsMCw1LjRjMC0xLjUzLDEuNTMtMi4zNCwzLjIxLTIuMzRjOS44NCwwLDkuODQsMCw5Ljg0LDBjMi4xLDAsMi4xLDEuNzYsMi4xLDIuMzRjMCwxLjUzLDAsMS41MywwLDEuNTMgICAgIGMyMS4xNiwwLDIxLjE2LDAsMjEuMTYsMGMyLjI2LDAuMTksMi4yNiwxLjcyLDIuMjYsMy42NGMwLDAuMTksMCwwLjYxLDAsMC45OWMtMS41LDAtMS41LDAtMS41LDBjMC0wLjM4LDAtMC44LDAtMC45OSAgICAgYzAtMi4xMS0wLjE5LTIuMTEtMC45NS0yLjExYy0yMi41LDAtMjIuNSwwLTIyLjUsMGMwLTMuMDYsMC0zLjA2LDAtMy4wNmMwLTAuNzcsMC0wLjc3LTAuNTctMC43N2MtOS44NCwwLTkuODQsMC05Ljg0LDAgICAgIGMtMC45MSwwLTEuODcsMC4zOS0xLjg3LDAuNzdjMCwyNi4xNSwwLDI2LjE1LDAsMjYuMTVIMS41M3oiLz4mI3hhOwkJPC9nPiYjeGE7CQk8ZyBpZD0ic2hhcGU1NDMyLTQiPiYjeGE7CQkJPHRpdGxlIGlkPSJ0aXRsZTEwMTA3NyI+U2hlZXQuNTQzMjwvdGl0bGU+JiN4YTsJCQk8cGF0aCBpZD0icGF0aDEwMTA3OSIgaW5rc2NhcGU6Y29ubmVjdG9yLWN1cnZhdHVyZT0iMCIgc3R5bGU9ImZpbGw6IzNGNTc2NTsiIGQ9Ik0zNi4xNSwzMy4wOWMtMzMuNzgsMC0zMy43OCwwLTMzLjc4LDAgICAgIGMtMC43NywwLTEuMzQtMC4yLTEuOTItMC43M2MtMC4zOC0wLjU4LTAuNTctMS4zNC0wLjM4LTIuMTFjMy40MS0xOS42LDMuNDEtMTkuNiwzLjQxLTE5LjZDMy44Niw5LjExLDUuMDEsNy45Nyw2LjUsNy45NyAgICAgYzMzLjc4LDAsMzMuNzgsMCwzMy43OCwwYzAuNTgsMCwxLjM0LDAuMzgsMS43MiwwLjk1YzAuNTgsMC41OCwwLjczLDEuMzQsMC41OCwxLjkyYy0zLjQxLDE5Ljc5LTMuNDEsMTkuNzktMy40MSwxOS43OSAgICAgQzM4Ljc5LDMxLjk4LDM3LjY0LDMzLjA5LDM2LjE1LDMzLjA5eiBNNi41LDkuNWMtMC43NywwLjE5LTEuMywwLjU3LTEuNDksMS4zNEMxLjYsMzAuNjMsMS42LDMwLjYzLDEuNiwzMC42MyAgICAgYy0wLjE5LDAuMiwwLDAuNTgsMC4xOSwwLjc3YzAsMC4xOSwwLjM5LDAuMTksMC41OCwwLjE5YzMzLjc4LDAsMzMuNzgsMCwzMy43OCwwYzAuNzcsMCwxLjMtMC41NywxLjQ5LTEuMzQgICAgIGMzLjQxLTE5LjYsMy40MS0xOS42LDMuNDEtMTkuNmMwLTAuMiwwLTAuNTgtMC4xOS0wLjc3Yy0wLjE5LTAuMTktMC4zOS0wLjM4LTAuNTgtMC4zOEM2LjUsOS41LDYuNSw5LjUsNi41LDkuNXoiLz4mI3hhOwkJPC9nPiYjeGE7CQk8ZyBpZD0ic2hhcGU1NDMzLTYiIHRyYW5zZm9ybT0idHJhbnNsYXRlKDE0LjU3MTYsLTEyLjI1MzkpIj4mI3hhOwkJCTx0aXRsZSBpZD0idGl0bGUxMDEwODIiPlNoZWV0LjU0MzM8L3RpdGxlPiYjeGE7CQkJPHBhdGggaWQ9InBhdGgxMDEwODQiIGlua3NjYXBlOmNvbm5lY3Rvci1jdXJ2YXR1cmU9IjAiIHN0eWxlPSJmaWxsOiMzRjU3NjU7IiBkPSJNMTIuNzQsMzMuMDljLTAuNTMsMC0wLjczLTAuMzktMC43My0wLjc3ICAgICBjMC0yLjY4LTIuNDEtNS4wMi01LjM1LTUuMDJjLTIuNTcsMC00LjU5LDEuNzMtNS4xNywzLjg3Yy0wLjE5LDAuMzgtMC41MywwLjc3LTAuOTIsMC41OEMwLjE5LDMxLjU1LDAsMzEuMTcsMCwzMC43OSAgICAgYzAuNzctMi45MSwzLjUyLTUuMDYsNi42Ni01LjA2YzMuNjcsMCw2LjgxLDIuOTEsNi44MSw2LjU5QzEzLjQ3LDMyLjcsMTMuMTIsMzMuMDksMTIuNzQsMzMuMDlMMTIuNzQsMzMuMDl6Ii8+JiN4YTsJCTwvZz4mI3hhOwkJPGcgaWQ9InNoYXBlNTQzNC04IiB0cmFuc2Zvcm09InRyYW5zbGF0ZSgyMy44OTQ5LC0xMi4yNTM5KSI+JiN4YTsJCQk8dGl0bGUgaWQ9InRpdGxlMTAxMDg3Ij5TaGVldC41NDM0PC90aXRsZT4mI3hhOwkJCTxwYXRoIGlkPSJwYXRoMTAxMDg5IiBpbmtzY2FwZTpjb25uZWN0b3ItY3VydmF0dXJlPSIwIiBzdHlsZT0iZmlsbDojM0Y1NzY1OyIgZD0iTTMuOCwzMy4wOWMtMC4xOSwwLTAuMTksMC0wLjE5LDAgICAgIGMtMi45OS0wLjc3LTIuOTktMC43Ny0yLjk5LTAuNzdjLTAuMzgtMC4xOS0wLjc2LTAuNTctMC41Ny0wLjk2YzAtMC4zOCwwLjU3LTAuNTcsMC45Ni0wLjU3YzIuNDEsMC43NiwyLjQxLDAuNzYsMi40MSwwLjc2ICAgICBjMS44Ny0xLjkxLDEuODctMS45MSwxLjg3LTEuOTFjMC4xOS0wLjIzLDAuNzctMC4yMywwLjk2LDBjMC4zNCwwLjM4LDAuMzQsMC43NywwLDEuMTVjLTIuMDcsMi4xLTIuMDcsMi4xLTIuMDcsMi4xICAgICBDNC4xOCwzMy4wOSwzLjk5LDMzLjA5LDMuOCwzMy4wOXoiLz4mI3hhOwkJPC9nPiYjeGE7CQk8ZyBpZD0ic2hhcGU1NDM1LTEwIiB0cmFuc2Zvcm09InRyYW5zbGF0ZSgxNC41NzE2LC00LjkwMTU3KSI+JiN4YTsJCQk8dGl0bGUgaWQ9InRpdGxlMTAxMDkyIj5TaGVldC41NDM1PC90aXRsZT4mI3hhOwkJCTxwYXRoIGlkPSJwYXRoMTAxMDk0IiBpbmtzY2FwZTpjb25uZWN0b3ItY3VydmF0dXJlPSIwIiBzdHlsZT0iZmlsbDojM0Y1NzY1OyIgZD0iTTcuMTUsMzMuMDlDMy4yOSwzMy4wOSwwLDMwLjE0LDAsMjYuNTQgICAgIGMwLTAuMzksMC40Mi0wLjgxLDAuOC0wLjgxYzAuMzksMCwwLjc3LDAuNDIsMC43NywwLjgxYzAsMi43OSwyLjQ5LDQuOTgsNS41OCw0Ljk4YzIuNTMsMCw0LjgzLTEuNjEsNS40LTMuOTkgICAgIGMwLTAuMzgsMC41Ny0wLjU3LDAuOTYtMC41N2MwLjM4LDAuMTksMC41NywwLjU3LDAuNTcsMC45OWwwLDBDMTMuMzEsMzAuOSwxMC40NSwzMy4wOSw3LjE1LDMzLjA5eiIvPiYjeGE7CQk8L2c+JiN4YTsJCTxnIGlkPSJzaGFwZTU0MzYtMTIiIHRyYW5zZm9ybT0idHJhbnNsYXRlKDEyLjczNTEsLTguNTc3NzYpIj4mI3hhOwkJCTx0aXRsZSBpZD0idGl0bGUxMDEwOTciPlNoZWV0LjU0MzY8L3RpdGxlPiYjeGE7CQkJPHBhdGggaWQ9InBhdGgxMDEwOTkiIGlua3NjYXBlOmNvbm5lY3Rvci1jdXJ2YXR1cmU9IjAiIHN0eWxlPSJmaWxsOiMzRjU3NjU7IiBkPSJNMC43MywzMy4wOUMwLjE5LDMzLjA5LDAsMzIuNywwLDMyLjMyICAgICBjMC0wLjE5LDAtMC4zOCwwLjE5LTAuNTdjMS45MS0yLjExLDEuOTEtMi4xMSwxLjkxLTIuMTFjMC4yLTAuMjMsMC4zNS0wLjIzLDAuNzMtMC4yM2MyLjYsMC44LDIuNiwwLjgsMi42LDAuOCAgICAgYzAuNTQsMC4yLDAuNjksMC41OCwwLjU0LDAuOTZjMCwwLjM4LTAuMzUsMC41OC0wLjg4LDAuNThjLTIuMjYtMC43Ny0yLjI2LTAuNzctMi4yNi0wLjc3Yy0xLjYxLDEuOTEtMS42MSwxLjkxLTEuNjEsMS45MSAgICAgQzEuMDcsMzIuODksMC44OCwzMy4wOSwwLjczLDMzLjA5eiIvPiYjeGE7CQk8L2c+JiN4YTsJPC9nPiYjeGE7PC9nPiYjeGE7PC9zdmc+;" vertex="1" parent="1">
          <mxGeometry x="447" y="270" width="43" height="33" as="geometry" />
        </mxCell>
        <mxCell id="OoRH-c_TX8An31oA8qig-119" value="" style="edgeStyle=orthogonalEdgeStyle;rounded=0;orthogonalLoop=1;jettySize=auto;html=1;" edge="1" parent="1" source="OoRH-c_TX8An31oA8qig-108" target="OoRH-c_TX8An31oA8qig-115">
          <mxGeometry relative="1" as="geometry" />
        </mxCell>
        <mxCell id="OoRH-c_TX8An31oA8qig-108" value="login" style="shape=image;verticalLabelPosition=bottom;labelBackgroundColor=#ffffff;verticalAlign=top;aspect=fixed;imageAspect=0;image=data:image/svg+xml,PHN2ZyB4bWxuczpjYz0iaHR0cDovL2NyZWF0aXZlY29tbW9ucy5vcmcvbnMjIiB4bWxuczpkYz0iaHR0cDovL3B1cmwub3JnL2RjL2VsZW1lbnRzLzEuMS8iIHhtbG5zOmlua3NjYXBlPSJodHRwOi8vd3d3Lmlua3NjYXBlLm9yZy9uYW1lc3BhY2VzL2lua3NjYXBlIiB4bWxuczpyZGY9Imh0dHA6Ly93d3cudzMub3JnLzE5OTkvMDIvMjItcmRmLXN5bnRheC1ucyMiIHhtbG5zOnNvZGlwb2RpPSJodHRwOi8vc29kaXBvZGkuc291cmNlZm9yZ2UubmV0L0RURC9zb2RpcG9kaS0wLmR0ZCIgeG1sbnM6c3ZnPSJodHRwOi8vd3d3LnczLm9yZy8yMDAwL3N2ZyIgeG1sbnM9Imh0dHA6Ly93d3cudzMub3JnLzIwMDAvc3ZnIiB4bWxuczp4bGluaz0iaHR0cDovL3d3dy53My5vcmcvMTk5OS94bGluayIgdmVyc2lvbj0iMS4xIiBpZD0ic3ZnMTE0MjUwIiBpbmtzY2FwZTp2ZXJzaW9uPSIwLjkyLjMgKDI0MDU1NDYsIDIwMTgtMDMtMTEpIiBzb2RpcG9kaTpkb2NuYW1lPSJ3ZWJwYWdlXzEuc3ZnIiB4PSIwcHgiIHk9IjBweCIgdmlld0JveD0iMCAwIDYxLjQ2IDQ1IiBzdHlsZT0iZW5hYmxlLWJhY2tncm91bmQ6bmV3IDAgMCA2MS40NiA0NTsiIHhtbDpzcGFjZT0icHJlc2VydmUiPiYjeGE7PHNvZGlwb2RpOm5hbWVkdmlldyBib3JkZXJjb2xvcj0iIzY2NjY2NiIgYm9yZGVyb3BhY2l0eT0iMSIgZml0LW1hcmdpbi1ib3R0b209IjAiIGZpdC1tYXJnaW4tbGVmdD0iMCIgZml0LW1hcmdpbi1yaWdodD0iMCIgZml0LW1hcmdpbi10b3A9IjAiIGdyaWR0b2xlcmFuY2U9IjEwIiBndWlkZXRvbGVyYW5jZT0iMTAiIGlkPSJuYW1lZHZpZXcxMTQyNTIiIGlua3NjYXBlOmN1cnJlbnQtbGF5ZXI9InN2ZzExNDI1MCIgaW5rc2NhcGU6Y3g9IjQwLjk3MDU5MiIgaW5rc2NhcGU6Y3k9IjI5Ljk5OTk5NSIgaW5rc2NhcGU6cGFnZW9wYWNpdHk9IjAiIGlua3NjYXBlOnBhZ2VzaGFkb3c9IjIiIGlua3NjYXBlOndpbmRvdy1oZWlnaHQ9IjEwMTciIGlua3NjYXBlOndpbmRvdy1tYXhpbWl6ZWQ9IjEiIGlua3NjYXBlOndpbmRvdy13aWR0aD0iMTkyMCIgaW5rc2NhcGU6d2luZG93LXg9Ii04IiBpbmtzY2FwZTp3aW5kb3cteT0iLTgiIGlua3NjYXBlOnpvb209IjE0LjQ1IiBvYmplY3R0b2xlcmFuY2U9IjEwIiBwYWdlY29sb3I9IiNmZmZmZmYiIHNob3dncmlkPSJmYWxzZSI+JiN4YTsJPC9zb2RpcG9kaTpuYW1lZHZpZXc+JiN4YTs8ZyBpZD0iZzExNDI0OCI+JiN4YTsJPHRpdGxlIGlkPSJ0aXRsZTExNDE1OSI+UGFnZS0xPC90aXRsZT4mI3hhOwk8ZyBpZD0iZ3JvdXA1NDk2LTEiPiYjeGE7CQk8dGl0bGUgaWQ9InRpdGxlMTE0MTYxIj5XZWJwYWdlICMxPC90aXRsZT4mI3hhOwkJPGcgaWQ9Imdyb3VwNTQ5Ny0yIj4mI3hhOwkJCTx0aXRsZSBpZD0idGl0bGUxMTQxNjMiPk1hbmFnZW1lbnQgUm9sZXMvUGVybWlzc2lvbnMuNzQ1MzwvdGl0bGU+JiN4YTsJCQk8ZyBpZD0iZ3JvdXA1NDk4LTMiPiYjeGE7CQkJCTx0aXRsZSBpZD0idGl0bGUxMTQxNjUiPldlYnNpdGVzICMyPC90aXRsZT4mI3hhOwkJCQk8ZyBpZD0ic2hhcGU1NDk5LTQiPiYjeGE7CQkJCQk8dGl0bGUgaWQ9InRpdGxlMTE0MTY3Ij5TaGVldC41NDk5PC90aXRsZT4mI3hhOwkJCQkJPHBhdGggaWQ9InBhdGgxMTQxNjkiIGlua3NjYXBlOmNvbm5lY3Rvci1jdXJ2YXR1cmU9IjAiIHN0eWxlPSJmaWxsOiMzRjU3NjU7IiBkPSJNNTkuMTEsMEMyLjI3LDAsMi4yNywwLDIuMjcsMCAgICAgICBDMC4zOCwwLDAsMC40NSwwLDIuMzRjMCw0MC4zOSwwLDQwLjM5LDAsNDAuMzlDMCw0NC42MiwwLjM4LDQ1LDIuMjcsNDVjNTYuODQsMCw1Ni44NCwwLDU2Ljg0LDBjMS45NywwLDIuMzUtMC4zOCwyLjM1LTIuMjcgICAgICAgYzAtNDAuMzksMC00MC4zOSwwLTQwLjM5QzYxLjQ2LDAuNDUsNjEuMDgsMCw1OS4xMSwweiIvPiYjeGE7CQkJCTwvZz4mI3hhOwkJCQk8ZyBpZD0ic2hhcGU1NTAwLTYiIHRyYW5zZm9ybT0idHJhbnNsYXRlKDEuNTg3NDIsLTM3Ljc1MTcpIj4mI3hhOwkJCQkJPHRpdGxlIGlkPSJ0aXRsZTExNDE3MiI+U2hlZXQuNTUwMDwvdGl0bGU+JiN4YTsJCQkJCTxwYXRoIGlkPSJwYXRoMTE0MTc0IiBpbmtzY2FwZTpjb25uZWN0b3ItY3VydmF0dXJlPSIwIiBzdHlsZT0iZmlsbDojMjZBOUUwOyIgZD0iTTYuMTIsNDEuOThDNi4xMiw0My43Miw0Ljc2LDQ1LDMuMSw0NSAgICAgICBTMCw0My43MiwwLDQxLjk4YzAtMS42NiwxLjQ0LTMuMDIsMy4xLTMuMDJTNi4xMiw0MC4zMiw2LjEyLDQxLjk4eiIvPiYjeGE7CQkJCTwvZz4mI3hhOwkJCQk8ZyBpZD0ic2hhcGU1NTAxLTgiIHRyYW5zZm9ybT0idHJhbnNsYXRlKDIuODcyNDgsLTM5LjQxMjgpIj4mI3hhOwkJCQkJPHRpdGxlIGlkPSJ0aXRsZTExNDE3NyI+U2hlZXQuNTUwMTwvdGl0bGU+JiN4YTsJCQkJCTxwYXRoIGlkPSJwYXRoMTE0MTc5IiBpbmtzY2FwZTpjb25uZWN0b3ItY3VydmF0dXJlPSIwIiBzdHlsZT0iZmlsbDojRkZGRkZGOyIgZD0iTTEuMjEsNDMuMzRsMS4wNi0wLjk4SDEuNDRMMCw0My42NEwxLjQ0LDQ1ICAgICAgIGgwLjgzbC0xLjA2LTEuMDZoMi40MnYtMC42SDEuMjF6Ii8+JiN4YTsJCQkJPC9nPiYjeGE7CQkJCTxnIGlkPSJzaGFwZTU1MDItMTAiIHRyYW5zZm9ybT0idHJhbnNsYXRlKDguODQ0MjEsLTM5LjQxMjgpIj4mI3hhOwkJCQkJPHRpdGxlIGlkPSJ0aXRsZTExNDE4MiI+U2hlZXQuNTUwMjwvdGl0bGU+JiN4YTsJCQkJCTxwYXRoIGlkPSJwYXRoMTE0MTg0IiBpbmtzY2FwZTpjb25uZWN0b3ItY3VydmF0dXJlPSIwIiBzdHlsZT0iZmlsbDojRkZGRkZGOyIgZD0iTTAsNDIuMTNWNDVoNTEuMTh2LTIuODdIMHoiLz4mI3hhOwkJCQk8L2c+JiN4YTsJCQkJPGcgaWQ9InNoYXBlNTUwMy0xMiIgdHJhbnNmb3JtPSJ0cmFuc2xhdGUoMTUuNzk4NiwtMTMuMTM3NikiPiYjeGE7CQkJCQk8dGl0bGUgaWQ9InRpdGxlMTE0MTg3Ij5TaGVldC41NTAzPC90aXRsZT4mI3hhOwkJCQkJPHBhdGggaWQ9InBhdGgxMTQxODkiIGlua3NjYXBlOmNvbm5lY3Rvci1jdXJ2YXR1cmU9IjAiIHN0eWxlPSJmaWxsOiNGRkZGRkY7IiBkPSJNMjguOCwzOC40M2MwLTEuNTEtMS4yMS0yLjc5LTIuOC0yLjc5ICAgICAgIGMtNC4yMywwLTQuMjMsMC00LjIzLDBjLTMuNy0zLjYzLTMuNy0zLjYzLTMuNy0zLjYzYy05LjA3LDAtOS4wNywwLTkuMDcsMGMtMy44NiwzLjctMy44NiwzLjctMy44NiwzLjcgICAgICAgYy0yLjM0LDAuMjMtNC4yMywyLjE5LTQuMjMsNC42MWMwLDAuOSwwLDAuOSwwLDAuOWMtMC45MSwwLTAuOTEsMC0wLjkxLDBjMCwxLjgyLDAsMS44MiwwLDEuODJjMy45MywwLDMuOTMsMCwzLjkzLDAgICAgICAgQzQuMzEsNDQuMTcsNS4zNyw0NSw2LjU4LDQ1czIuMTktMC44MywyLjU3LTEuOTZjMTEuNDksMCwxMS40OSwwLDExLjQ5LDBjMC40NSwxLjEzLDEuNDMsMS45NiwyLjY0LDEuOTZzMi4xOS0wLjgzLDIuNjUtMS45NiAgICAgICBjMy43OCwwLDMuNzgsMCwzLjc4LDBjMC0xLjgyLDAtMS44MiwwLTEuODJjLTAuOTEsMC0wLjkxLDAtMC45MSwwVjM4LjQzeiBNMjYuOTksMzguNDNjMCwyLjc5LDAsMi43OSwwLDIuNzkgICAgICAgYy0xLjA2LDAtMS4wNiwwLTEuMDYsMGMtMC40Ni0xLjA1LTEuNDQtMS44OC0yLjY1LTEuODhjLTEuMjEsMC0yLjE5LDAuODMtMi42NCwxLjg4Yy03LjY0LDAtNy42NCwwLTcuNjQsMCAgICAgICBjMC0zLjY5LDAtMy42OSwwLTMuNjljMTMsMCwxMywwLDEzLDBDMjYuNjEsMzcuNTMsMjYuOTksMzcuOSwyNi45OSwzOC40M3ogTTE5LjEyLDM1LjY0Yy02LjEyLDAtNi4xMiwwLTYuMTIsMCAgICAgICBjMC0xLjgxLDAtMS44MSwwLTEuODFjNC4zMSwwLDQuMzEsMCw0LjMxLDBMMTkuMTIsMzUuNjR6IE05LjY4LDMzLjgzYzEuNTEsMCwxLjUxLDAsMS41MSwwYzAsMS44MSwwLDEuODEsMCwxLjgxICAgICAgIGMtMy4zMywwLTMuMzMsMC0zLjMzLDBMOS42OCwzMy44M3ogTTIuOCw0MC4zMmMwLTEuNTksMS4yMS0yLjc5LDIuODctMi43OWM1LjUyLDAsNS41MiwwLDUuNTIsMGMwLDMuNjksMCwzLjY5LDAsMy42OSAgICAgICBjLTIuMDQsMC0yLjA0LDAtMi4wNCwwYy0wLjM4LTEuMDUtMS4zNi0xLjg4LTIuNTctMS44OHMtMi4yNywwLjgzLTIuNjUsMS44OGMtMS4xMywwLTEuMTMsMC0xLjEzLDBMMi44LDQwLjMyeiBNNi41OCw0My4wNCAgICAgICBjLTAuNTMsMC0wLjkxLTAuMzgtMC45MS0wLjkxYzAtMC40NSwwLjM4LTAuOTEsMC45MS0wLjkxYzAuNDUsMCwwLjksMC40NiwwLjksMC45MUM3LjQ4LDQyLjY2LDcuMDMsNDMuMDQsNi41OCw0My4wNHogICAgICAgIE0yMy4yOCw0My4wNGMtMC41MywwLTAuOS0wLjM4LTAuOS0wLjkxYzAtMC40NSwwLjM3LTAuOTEsMC45LTAuOTFjMC41MywwLDAuOTEsMC40NiwwLjkxLDAuOTEgICAgICAgQzI0LjE5LDQyLjY2LDIzLjgxLDQzLjA0LDIzLjI4LDQzLjA0eiIvPiYjeGE7CQkJCTwvZz4mI3hhOwkJCQk8ZyBpZD0ic2hhcGU1NTA0LTE0IiB0cmFuc2Zvcm09InRyYW5zbGF0ZSgxLjMxNzczLC0yLjEzMjg3KSI+JiN4YTsJCQkJCTx0aXRsZSBpZD0idGl0bGUxMTQxOTIiPlNoZWV0LjU1MDQ8L3RpdGxlPiYjeGE7CQkJCQk8cGF0aCBpZD0icGF0aDExNDE5NCIgaW5rc2NhcGU6Y29ubmVjdG9yLWN1cnZhdHVyZT0iMCIgc3R5bGU9ImZpbGw6IzAwQjBGMDsiIGQ9Ik0wLDEwLjU2VjQ1aDU4LjUyVjEwLjU2SDB6Ii8+JiN4YTsJCQkJPC9nPiYjeGE7CQkJPC9nPiYjeGE7CQk8L2c+JiN4YTsJCTxnIGlkPSJncm91cDU1MDUtMTYiIHRyYW5zZm9ybT0idHJhbnNsYXRlKDQuMjkwNDUsLTYuNzUwMDEpIj4mI3hhOwkJCTx0aXRsZSBpZD0idGl0bGUxMTQxOTkiPldlYjwvdGl0bGU+JiN4YTsJCQk8ZyBpZD0ic2hhcGU1NTA2LTE3Ij4mI3hhOwkJCQk8dGl0bGUgaWQ9InRpdGxlMTE0MjAxIj5TaGVldC41NTA2PC90aXRsZT4mI3hhOwkJCQk8cGF0aCBpZD0icGF0aDExNDIwMyIgaW5rc2NhcGU6Y29ubmVjdG9yLWN1cnZhdHVyZT0iMCIgc3R5bGU9ImZpbGw6I0ZGRkZGRjsiIGQ9Ik0wLDIxLjg3VjQ1aDUyLjg3VjIxLjg3SDB6Ii8+JiN4YTsJCQk8L2c+JiN4YTsJCQk8ZyBpZD0ic2hhcGU1NTA3LTE5IiB0cmFuc2Zvcm09InRyYW5zbGF0ZSgwLC0yMy4xMzA5KSI+JiN4YTsJCQkJPHRpdGxlIGlkPSJ0aXRsZTExNDIwNiI+U2hlZXQuNTUwNzwvdGl0bGU+JiN4YTsJCQkJPHBhdGggaWQ9InBhdGgxMTQyMDgiIGlua3NjYXBlOmNvbm5lY3Rvci1jdXJ2YXR1cmU9IjAiIHN0eWxlPSJmaWxsOiM1MDUwNTA7IiBkPSJNMCw0Mi41NVY0NWg1Mi44N3YtMi40NUgweiIvPiYjeGE7CQkJPC9nPiYjeGE7CQkJPGcgaWQ9InNoYXBlNTUwOC0yMSIgdHJhbnNmb3JtPSJ0cmFuc2xhdGUoNTAuNzc0LC0yMy44MzE5KSI+JiN4YTsJCQkJPHRpdGxlIGlkPSJ0aXRsZTExNDIxMSI+U2hlZXQuNTUwODwvdGl0bGU+JiN4YTsJCQkJPHBhdGggaWQ9InBhdGgxMTQyMTMiIGlua3NjYXBlOmNvbm5lY3Rvci1jdXJ2YXR1cmU9IjAiIHN0eWxlPSJmaWxsOiNGOUY3Rjg7IiBkPSJNMS4wNSw0NWMtMC4zMSwwLTAuMzEsMC0wLjMxLDAgICAgICBjLTAuMTUtMC4zMy0wLjE1LTAuMzMtMC4xNS0wLjMzYy0wLjA2LTAuMDQtMC4wNi0wLjA0LTAuMDYtMC4wOWwwLDBjMCwwLjA1LDAsMC4wNSwwLDAuMDlDMC4zMyw0NSwwLjMzLDQ1LDAuMzMsNDUgICAgICBDMCw0NSwwLDQ1LDAsNDVjMC4zNy0wLjUzLDAuMzctMC41MywwLjM3LTAuNTNjLTAuMy0wLjUyLTAuMy0wLjUyLTAuMy0wLjUyYzAuMywwLDAuMywwLDAuMywwYzAuMTYsMC4zNSwwLjE2LDAuMzUsMC4xNiwwLjM1ICAgICAgdjAuMDRsMCwwbDAuMDYtMC4wNGMwLjE1LTAuMzUsMC4xNS0wLjM1LDAuMTUtMC4zNWMwLjMxLDAsMC4zMSwwLDAuMzEsMEMwLjcsNDQuNDcsMC43LDQ0LjQ3LDAuNyw0NC40N0wxLjA1LDQ1eiIvPiYjeGE7CQkJPC9nPiYjeGE7CQkJPGcgaWQ9InNoYXBlNTUwOS0yMyIgdHJhbnNmb3JtPSJ0cmFuc2xhdGUoNC45MDIzMiwtMTcuODczOSkiPiYjeGE7CQkJCTx0aXRsZSBpZD0idGl0bGUxMTQyMTYiPlNoZWV0LjU1MDk8L3RpdGxlPiYjeGE7CQkJCTxwYXRoIGlkPSJwYXRoMTE0MjE4IiBpbmtzY2FwZTpjb25uZWN0b3ItY3VydmF0dXJlPSIwIiBzdHlsZT0iZmlsbDojREZERkRGOyIgZD0iTTAsNDMuMjVWNDVoMjMuODF2LTEuNzVIMHoiLz4mI3hhOwkJCTwvZz4mI3hhOwkJCTxnIGlkPSJzaGFwZTU1MTAtMjUiIHRyYW5zZm9ybT0idHJhbnNsYXRlKDQuOTAyMzIsLTE0LjM2OTIpIj4mI3hhOwkJCQk8dGl0bGUgaWQ9InRpdGxlMTE0MjIxIj5TaGVldC41NTEwPC90aXRsZT4mI3hhOwkJCQk8cGF0aCBpZD0icGF0aDExNDIyMyIgaW5rc2NhcGU6Y29ubmVjdG9yLWN1cnZhdHVyZT0iMCIgc3R5bGU9ImZpbGw6I0RGREZERjsiIGQ9Ik0wLDQzLjZWNDVoMjMuODF2LTEuNEgweiIvPiYjeGE7CQkJPC9nPiYjeGE7CQkJPGcgaWQ9InNoYXBlNTUxMS0yNyIgdHJhbnNmb3JtPSJ0cmFuc2xhdGUoNC45MDIzMiwtMTAuODY0NSkiPiYjeGE7CQkJCTx0aXRsZSBpZD0idGl0bGUxMTQyMjYiPlNoZWV0LjU1MTE8L3RpdGxlPiYjeGE7CQkJCTxwYXRoIGlkPSJwYXRoMTE0MjI4IiBpbmtzY2FwZTpjb25uZWN0b3ItY3VydmF0dXJlPSIwIiBzdHlsZT0iZmlsbDojREZERkRGOyIgZD0iTTAsNDMuNlY0NWgyMy44MXYtMS40SDB6Ii8+JiN4YTsJCQk8L2c+JiN4YTsJCQk8ZyBpZD0ic2hhcGU1NTEyLTI5IiB0cmFuc2Zvcm09InRyYW5zbGF0ZSg0LjkwMjMyLC03LjM1OTg0KSI+JiN4YTsJCQkJPHRpdGxlIGlkPSJ0aXRsZTExNDIzMSI+U2hlZXQuNTUxMjwvdGl0bGU+JiN4YTsJCQkJPHBhdGggaWQ9InBhdGgxMTQyMzMiIGlua3NjYXBlOmNvbm5lY3Rvci1jdXJ2YXR1cmU9IjAiIHN0eWxlPSJmaWxsOiNERkRGREY7IiBkPSJNMCw0My42VjQ1aDIzLjgxdi0xLjRIMHoiLz4mI3hhOwkJCTwvZz4mI3hhOwkJCTxnIGlkPSJzaGFwZTU1MTMtMzEiIHRyYW5zZm9ybT0idHJhbnNsYXRlKDQuOTAyMzIsLTMuODU1MTUpIj4mI3hhOwkJCQk8dGl0bGUgaWQ9InRpdGxlMTE0MjM2Ij5TaGVldC41NTEzPC90aXRsZT4mI3hhOwkJCQk8cGF0aCBpZD0icGF0aDExNDIzOCIgaW5rc2NhcGU6Y29ubmVjdG9yLWN1cnZhdHVyZT0iMCIgc3R5bGU9ImZpbGw6I0RGREZERjsiIGQ9Ik0wLDQzLjZWNDVoMjMuODF2LTEuNEgweiIvPiYjeGE7CQkJPC9nPiYjeGE7CQkJPGcgaWQ9InNoYXBlNTUxNC0zMyIgdHJhbnNmb3JtPSJ0cmFuc2xhdGUoMzAuODE0NiwtMy44NTUxNSkiPiYjeGE7CQkJCTx0aXRsZSBpZD0idGl0bGUxMTQyNDEiPlNoZWV0LjU1MTQ8L3RpdGxlPiYjeGE7CQkJCTxwYXRoIGlkPSJwYXRoMTE0MjQzIiBpbmtzY2FwZTpjb25uZWN0b3ItY3VydmF0dXJlPSIwIiBzdHlsZT0iZmlsbDojREZERkRGOyIgZD0iTTAsMjkuMjNWNDVoMTguNTZWMjkuMjNIMHoiLz4mI3hhOwkJCTwvZz4mI3hhOwkJPC9nPiYjeGE7CTwvZz4mI3hhOzwvZz4mI3hhOzwvc3ZnPg==;" vertex="1" parent="1">
          <mxGeometry x="260" y="105.5" width="61" height="45" as="geometry" />
        </mxCell>
        <mxCell id="OoRH-c_TX8An31oA8qig-134" style="edgeStyle=orthogonalEdgeStyle;rounded=0;orthogonalLoop=1;jettySize=auto;html=1;" edge="1" parent="1" source="OoRH-c_TX8An31oA8qig-109" target="OoRH-c_TX8An31oA8qig-132">
          <mxGeometry relative="1" as="geometry" />
        </mxCell>
        <mxCell id="OoRH-c_TX8An31oA8qig-109" value="" style="shape=image;verticalLabelPosition=bottom;labelBackgroundColor=#ffffff;verticalAlign=top;aspect=fixed;imageAspect=0;image=data:image/svg+xml,PHN2ZyB4bWxuczpjYz0iaHR0cDovL2NyZWF0aXZlY29tbW9ucy5vcmcvbnMjIiB4bWxuczpkYz0iaHR0cDovL3B1cmwub3JnL2RjL2VsZW1lbnRzLzEuMS8iIHhtbG5zOmlua3NjYXBlPSJodHRwOi8vd3d3Lmlua3NjYXBlLm9yZy9uYW1lc3BhY2VzL2lua3NjYXBlIiB4bWxuczpyZGY9Imh0dHA6Ly93d3cudzMub3JnLzE5OTkvMDIvMjItcmRmLXN5bnRheC1ucyMiIHhtbG5zOnNvZGlwb2RpPSJodHRwOi8vc29kaXBvZGkuc291cmNlZm9yZ2UubmV0L0RURC9zb2RpcG9kaS0wLmR0ZCIgeG1sbnM6c3ZnPSJodHRwOi8vd3d3LnczLm9yZy8yMDAwL3N2ZyIgeG1sbnM9Imh0dHA6Ly93d3cudzMub3JnLzIwMDAvc3ZnIiB4bWxuczp4bGluaz0iaHR0cDovL3d3dy53My5vcmcvMTk5OS94bGluayIgdmVyc2lvbj0iMS4xIiBpZD0ic3ZnMTE0MjUwIiBpbmtzY2FwZTp2ZXJzaW9uPSIwLjkyLjMgKDI0MDU1NDYsIDIwMTgtMDMtMTEpIiBzb2RpcG9kaTpkb2NuYW1lPSJ3ZWJwYWdlXzEuc3ZnIiB4PSIwcHgiIHk9IjBweCIgdmlld0JveD0iMCAwIDYxLjQ2IDQ1IiBzdHlsZT0iZW5hYmxlLWJhY2tncm91bmQ6bmV3IDAgMCA2MS40NiA0NTsiIHhtbDpzcGFjZT0icHJlc2VydmUiPiYjeGE7PHNvZGlwb2RpOm5hbWVkdmlldyBib3JkZXJjb2xvcj0iIzY2NjY2NiIgYm9yZGVyb3BhY2l0eT0iMSIgZml0LW1hcmdpbi1ib3R0b209IjAiIGZpdC1tYXJnaW4tbGVmdD0iMCIgZml0LW1hcmdpbi1yaWdodD0iMCIgZml0LW1hcmdpbi10b3A9IjAiIGdyaWR0b2xlcmFuY2U9IjEwIiBndWlkZXRvbGVyYW5jZT0iMTAiIGlkPSJuYW1lZHZpZXcxMTQyNTIiIGlua3NjYXBlOmN1cnJlbnQtbGF5ZXI9InN2ZzExNDI1MCIgaW5rc2NhcGU6Y3g9IjQwLjk3MDU5MiIgaW5rc2NhcGU6Y3k9IjI5Ljk5OTk5NSIgaW5rc2NhcGU6cGFnZW9wYWNpdHk9IjAiIGlua3NjYXBlOnBhZ2VzaGFkb3c9IjIiIGlua3NjYXBlOndpbmRvdy1oZWlnaHQ9IjEwMTciIGlua3NjYXBlOndpbmRvdy1tYXhpbWl6ZWQ9IjEiIGlua3NjYXBlOndpbmRvdy13aWR0aD0iMTkyMCIgaW5rc2NhcGU6d2luZG93LXg9Ii04IiBpbmtzY2FwZTp3aW5kb3cteT0iLTgiIGlua3NjYXBlOnpvb209IjE0LjQ1IiBvYmplY3R0b2xlcmFuY2U9IjEwIiBwYWdlY29sb3I9IiNmZmZmZmYiIHNob3dncmlkPSJmYWxzZSI+JiN4YTsJPC9zb2RpcG9kaTpuYW1lZHZpZXc+JiN4YTs8ZyBpZD0iZzExNDI0OCI+JiN4YTsJPHRpdGxlIGlkPSJ0aXRsZTExNDE1OSI+UGFnZS0xPC90aXRsZT4mI3hhOwk8ZyBpZD0iZ3JvdXA1NDk2LTEiPiYjeGE7CQk8dGl0bGUgaWQ9InRpdGxlMTE0MTYxIj5XZWJwYWdlICMxPC90aXRsZT4mI3hhOwkJPGcgaWQ9Imdyb3VwNTQ5Ny0yIj4mI3hhOwkJCTx0aXRsZSBpZD0idGl0bGUxMTQxNjMiPk1hbmFnZW1lbnQgUm9sZXMvUGVybWlzc2lvbnMuNzQ1MzwvdGl0bGU+JiN4YTsJCQk8ZyBpZD0iZ3JvdXA1NDk4LTMiPiYjeGE7CQkJCTx0aXRsZSBpZD0idGl0bGUxMTQxNjUiPldlYnNpdGVzICMyPC90aXRsZT4mI3hhOwkJCQk8ZyBpZD0ic2hhcGU1NDk5LTQiPiYjeGE7CQkJCQk8dGl0bGUgaWQ9InRpdGxlMTE0MTY3Ij5TaGVldC41NDk5PC90aXRsZT4mI3hhOwkJCQkJPHBhdGggaWQ9InBhdGgxMTQxNjkiIGlua3NjYXBlOmNvbm5lY3Rvci1jdXJ2YXR1cmU9IjAiIHN0eWxlPSJmaWxsOiMzRjU3NjU7IiBkPSJNNTkuMTEsMEMyLjI3LDAsMi4yNywwLDIuMjcsMCAgICAgICBDMC4zOCwwLDAsMC40NSwwLDIuMzRjMCw0MC4zOSwwLDQwLjM5LDAsNDAuMzlDMCw0NC42MiwwLjM4LDQ1LDIuMjcsNDVjNTYuODQsMCw1Ni44NCwwLDU2Ljg0LDBjMS45NywwLDIuMzUtMC4zOCwyLjM1LTIuMjcgICAgICAgYzAtNDAuMzksMC00MC4zOSwwLTQwLjM5QzYxLjQ2LDAuNDUsNjEuMDgsMCw1OS4xMSwweiIvPiYjeGE7CQkJCTwvZz4mI3hhOwkJCQk8ZyBpZD0ic2hhcGU1NTAwLTYiIHRyYW5zZm9ybT0idHJhbnNsYXRlKDEuNTg3NDIsLTM3Ljc1MTcpIj4mI3hhOwkJCQkJPHRpdGxlIGlkPSJ0aXRsZTExNDE3MiI+U2hlZXQuNTUwMDwvdGl0bGU+JiN4YTsJCQkJCTxwYXRoIGlkPSJwYXRoMTE0MTc0IiBpbmtzY2FwZTpjb25uZWN0b3ItY3VydmF0dXJlPSIwIiBzdHlsZT0iZmlsbDojMjZBOUUwOyIgZD0iTTYuMTIsNDEuOThDNi4xMiw0My43Miw0Ljc2LDQ1LDMuMSw0NSAgICAgICBTMCw0My43MiwwLDQxLjk4YzAtMS42NiwxLjQ0LTMuMDIsMy4xLTMuMDJTNi4xMiw0MC4zMiw2LjEyLDQxLjk4eiIvPiYjeGE7CQkJCTwvZz4mI3hhOwkJCQk8ZyBpZD0ic2hhcGU1NTAxLTgiIHRyYW5zZm9ybT0idHJhbnNsYXRlKDIuODcyNDgsLTM5LjQxMjgpIj4mI3hhOwkJCQkJPHRpdGxlIGlkPSJ0aXRsZTExNDE3NyI+U2hlZXQuNTUwMTwvdGl0bGU+JiN4YTsJCQkJCTxwYXRoIGlkPSJwYXRoMTE0MTc5IiBpbmtzY2FwZTpjb25uZWN0b3ItY3VydmF0dXJlPSIwIiBzdHlsZT0iZmlsbDojRkZGRkZGOyIgZD0iTTEuMjEsNDMuMzRsMS4wNi0wLjk4SDEuNDRMMCw0My42NEwxLjQ0LDQ1ICAgICAgIGgwLjgzbC0xLjA2LTEuMDZoMi40MnYtMC42SDEuMjF6Ii8+JiN4YTsJCQkJPC9nPiYjeGE7CQkJCTxnIGlkPSJzaGFwZTU1MDItMTAiIHRyYW5zZm9ybT0idHJhbnNsYXRlKDguODQ0MjEsLTM5LjQxMjgpIj4mI3hhOwkJCQkJPHRpdGxlIGlkPSJ0aXRsZTExNDE4MiI+U2hlZXQuNTUwMjwvdGl0bGU+JiN4YTsJCQkJCTxwYXRoIGlkPSJwYXRoMTE0MTg0IiBpbmtzY2FwZTpjb25uZWN0b3ItY3VydmF0dXJlPSIwIiBzdHlsZT0iZmlsbDojRkZGRkZGOyIgZD0iTTAsNDIuMTNWNDVoNTEuMTh2LTIuODdIMHoiLz4mI3hhOwkJCQk8L2c+JiN4YTsJCQkJPGcgaWQ9InNoYXBlNTUwMy0xMiIgdHJhbnNmb3JtPSJ0cmFuc2xhdGUoMTUuNzk4NiwtMTMuMTM3NikiPiYjeGE7CQkJCQk8dGl0bGUgaWQ9InRpdGxlMTE0MTg3Ij5TaGVldC41NTAzPC90aXRsZT4mI3hhOwkJCQkJPHBhdGggaWQ9InBhdGgxMTQxODkiIGlua3NjYXBlOmNvbm5lY3Rvci1jdXJ2YXR1cmU9IjAiIHN0eWxlPSJmaWxsOiNGRkZGRkY7IiBkPSJNMjguOCwzOC40M2MwLTEuNTEtMS4yMS0yLjc5LTIuOC0yLjc5ICAgICAgIGMtNC4yMywwLTQuMjMsMC00LjIzLDBjLTMuNy0zLjYzLTMuNy0zLjYzLTMuNy0zLjYzYy05LjA3LDAtOS4wNywwLTkuMDcsMGMtMy44NiwzLjctMy44NiwzLjctMy44NiwzLjcgICAgICAgYy0yLjM0LDAuMjMtNC4yMywyLjE5LTQuMjMsNC42MWMwLDAuOSwwLDAuOSwwLDAuOWMtMC45MSwwLTAuOTEsMC0wLjkxLDBjMCwxLjgyLDAsMS44MiwwLDEuODJjMy45MywwLDMuOTMsMCwzLjkzLDAgICAgICAgQzQuMzEsNDQuMTcsNS4zNyw0NSw2LjU4LDQ1czIuMTktMC44MywyLjU3LTEuOTZjMTEuNDksMCwxMS40OSwwLDExLjQ5LDBjMC40NSwxLjEzLDEuNDMsMS45NiwyLjY0LDEuOTZzMi4xOS0wLjgzLDIuNjUtMS45NiAgICAgICBjMy43OCwwLDMuNzgsMCwzLjc4LDBjMC0xLjgyLDAtMS44MiwwLTEuODJjLTAuOTEsMC0wLjkxLDAtMC45MSwwVjM4LjQzeiBNMjYuOTksMzguNDNjMCwyLjc5LDAsMi43OSwwLDIuNzkgICAgICAgYy0xLjA2LDAtMS4wNiwwLTEuMDYsMGMtMC40Ni0xLjA1LTEuNDQtMS44OC0yLjY1LTEuODhjLTEuMjEsMC0yLjE5LDAuODMtMi42NCwxLjg4Yy03LjY0LDAtNy42NCwwLTcuNjQsMCAgICAgICBjMC0zLjY5LDAtMy42OSwwLTMuNjljMTMsMCwxMywwLDEzLDBDMjYuNjEsMzcuNTMsMjYuOTksMzcuOSwyNi45OSwzOC40M3ogTTE5LjEyLDM1LjY0Yy02LjEyLDAtNi4xMiwwLTYuMTIsMCAgICAgICBjMC0xLjgxLDAtMS44MSwwLTEuODFjNC4zMSwwLDQuMzEsMCw0LjMxLDBMMTkuMTIsMzUuNjR6IE05LjY4LDMzLjgzYzEuNTEsMCwxLjUxLDAsMS41MSwwYzAsMS44MSwwLDEuODEsMCwxLjgxICAgICAgIGMtMy4zMywwLTMuMzMsMC0zLjMzLDBMOS42OCwzMy44M3ogTTIuOCw0MC4zMmMwLTEuNTksMS4yMS0yLjc5LDIuODctMi43OWM1LjUyLDAsNS41MiwwLDUuNTIsMGMwLDMuNjksMCwzLjY5LDAsMy42OSAgICAgICBjLTIuMDQsMC0yLjA0LDAtMi4wNCwwYy0wLjM4LTEuMDUtMS4zNi0xLjg4LTIuNTctMS44OHMtMi4yNywwLjgzLTIuNjUsMS44OGMtMS4xMywwLTEuMTMsMC0xLjEzLDBMMi44LDQwLjMyeiBNNi41OCw0My4wNCAgICAgICBjLTAuNTMsMC0wLjkxLTAuMzgtMC45MS0wLjkxYzAtMC40NSwwLjM4LTAuOTEsMC45MS0wLjkxYzAuNDUsMCwwLjksMC40NiwwLjksMC45MUM3LjQ4LDQyLjY2LDcuMDMsNDMuMDQsNi41OCw0My4wNHogICAgICAgIE0yMy4yOCw0My4wNGMtMC41MywwLTAuOS0wLjM4LTAuOS0wLjkxYzAtMC40NSwwLjM3LTAuOTEsMC45LTAuOTFjMC41MywwLDAuOTEsMC40NiwwLjkxLDAuOTEgICAgICAgQzI0LjE5LDQyLjY2LDIzLjgxLDQzLjA0LDIzLjI4LDQzLjA0eiIvPiYjeGE7CQkJCTwvZz4mI3hhOwkJCQk8ZyBpZD0ic2hhcGU1NTA0LTE0IiB0cmFuc2Zvcm09InRyYW5zbGF0ZSgxLjMxNzczLC0yLjEzMjg3KSI+JiN4YTsJCQkJCTx0aXRsZSBpZD0idGl0bGUxMTQxOTIiPlNoZWV0LjU1MDQ8L3RpdGxlPiYjeGE7CQkJCQk8cGF0aCBpZD0icGF0aDExNDE5NCIgaW5rc2NhcGU6Y29ubmVjdG9yLWN1cnZhdHVyZT0iMCIgc3R5bGU9ImZpbGw6IzAwQjBGMDsiIGQ9Ik0wLDEwLjU2VjQ1aDU4LjUyVjEwLjU2SDB6Ii8+JiN4YTsJCQkJPC9nPiYjeGE7CQkJPC9nPiYjeGE7CQk8L2c+JiN4YTsJCTxnIGlkPSJncm91cDU1MDUtMTYiIHRyYW5zZm9ybT0idHJhbnNsYXRlKDQuMjkwNDUsLTYuNzUwMDEpIj4mI3hhOwkJCTx0aXRsZSBpZD0idGl0bGUxMTQxOTkiPldlYjwvdGl0bGU+JiN4YTsJCQk8ZyBpZD0ic2hhcGU1NTA2LTE3Ij4mI3hhOwkJCQk8dGl0bGUgaWQ9InRpdGxlMTE0MjAxIj5TaGVldC41NTA2PC90aXRsZT4mI3hhOwkJCQk8cGF0aCBpZD0icGF0aDExNDIwMyIgaW5rc2NhcGU6Y29ubmVjdG9yLWN1cnZhdHVyZT0iMCIgc3R5bGU9ImZpbGw6I0ZGRkZGRjsiIGQ9Ik0wLDIxLjg3VjQ1aDUyLjg3VjIxLjg3SDB6Ii8+JiN4YTsJCQk8L2c+JiN4YTsJCQk8ZyBpZD0ic2hhcGU1NTA3LTE5IiB0cmFuc2Zvcm09InRyYW5zbGF0ZSgwLC0yMy4xMzA5KSI+JiN4YTsJCQkJPHRpdGxlIGlkPSJ0aXRsZTExNDIwNiI+U2hlZXQuNTUwNzwvdGl0bGU+JiN4YTsJCQkJPHBhdGggaWQ9InBhdGgxMTQyMDgiIGlua3NjYXBlOmNvbm5lY3Rvci1jdXJ2YXR1cmU9IjAiIHN0eWxlPSJmaWxsOiM1MDUwNTA7IiBkPSJNMCw0Mi41NVY0NWg1Mi44N3YtMi40NUgweiIvPiYjeGE7CQkJPC9nPiYjeGE7CQkJPGcgaWQ9InNoYXBlNTUwOC0yMSIgdHJhbnNmb3JtPSJ0cmFuc2xhdGUoNTAuNzc0LC0yMy44MzE5KSI+JiN4YTsJCQkJPHRpdGxlIGlkPSJ0aXRsZTExNDIxMSI+U2hlZXQuNTUwODwvdGl0bGU+JiN4YTsJCQkJPHBhdGggaWQ9InBhdGgxMTQyMTMiIGlua3NjYXBlOmNvbm5lY3Rvci1jdXJ2YXR1cmU9IjAiIHN0eWxlPSJmaWxsOiNGOUY3Rjg7IiBkPSJNMS4wNSw0NWMtMC4zMSwwLTAuMzEsMC0wLjMxLDAgICAgICBjLTAuMTUtMC4zMy0wLjE1LTAuMzMtMC4xNS0wLjMzYy0wLjA2LTAuMDQtMC4wNi0wLjA0LTAuMDYtMC4wOWwwLDBjMCwwLjA1LDAsMC4wNSwwLDAuMDlDMC4zMyw0NSwwLjMzLDQ1LDAuMzMsNDUgICAgICBDMCw0NSwwLDQ1LDAsNDVjMC4zNy0wLjUzLDAuMzctMC41MywwLjM3LTAuNTNjLTAuMy0wLjUyLTAuMy0wLjUyLTAuMy0wLjUyYzAuMywwLDAuMywwLDAuMywwYzAuMTYsMC4zNSwwLjE2LDAuMzUsMC4xNiwwLjM1ICAgICAgdjAuMDRsMCwwbDAuMDYtMC4wNGMwLjE1LTAuMzUsMC4xNS0wLjM1LDAuMTUtMC4zNWMwLjMxLDAsMC4zMSwwLDAuMzEsMEMwLjcsNDQuNDcsMC43LDQ0LjQ3LDAuNyw0NC40N0wxLjA1LDQ1eiIvPiYjeGE7CQkJPC9nPiYjeGE7CQkJPGcgaWQ9InNoYXBlNTUwOS0yMyIgdHJhbnNmb3JtPSJ0cmFuc2xhdGUoNC45MDIzMiwtMTcuODczOSkiPiYjeGE7CQkJCTx0aXRsZSBpZD0idGl0bGUxMTQyMTYiPlNoZWV0LjU1MDk8L3RpdGxlPiYjeGE7CQkJCTxwYXRoIGlkPSJwYXRoMTE0MjE4IiBpbmtzY2FwZTpjb25uZWN0b3ItY3VydmF0dXJlPSIwIiBzdHlsZT0iZmlsbDojREZERkRGOyIgZD0iTTAsNDMuMjVWNDVoMjMuODF2LTEuNzVIMHoiLz4mI3hhOwkJCTwvZz4mI3hhOwkJCTxnIGlkPSJzaGFwZTU1MTAtMjUiIHRyYW5zZm9ybT0idHJhbnNsYXRlKDQuOTAyMzIsLTE0LjM2OTIpIj4mI3hhOwkJCQk8dGl0bGUgaWQ9InRpdGxlMTE0MjIxIj5TaGVldC41NTEwPC90aXRsZT4mI3hhOwkJCQk8cGF0aCBpZD0icGF0aDExNDIyMyIgaW5rc2NhcGU6Y29ubmVjdG9yLWN1cnZhdHVyZT0iMCIgc3R5bGU9ImZpbGw6I0RGREZERjsiIGQ9Ik0wLDQzLjZWNDVoMjMuODF2LTEuNEgweiIvPiYjeGE7CQkJPC9nPiYjeGE7CQkJPGcgaWQ9InNoYXBlNTUxMS0yNyIgdHJhbnNmb3JtPSJ0cmFuc2xhdGUoNC45MDIzMiwtMTAuODY0NSkiPiYjeGE7CQkJCTx0aXRsZSBpZD0idGl0bGUxMTQyMjYiPlNoZWV0LjU1MTE8L3RpdGxlPiYjeGE7CQkJCTxwYXRoIGlkPSJwYXRoMTE0MjI4IiBpbmtzY2FwZTpjb25uZWN0b3ItY3VydmF0dXJlPSIwIiBzdHlsZT0iZmlsbDojREZERkRGOyIgZD0iTTAsNDMuNlY0NWgyMy44MXYtMS40SDB6Ii8+JiN4YTsJCQk8L2c+JiN4YTsJCQk8ZyBpZD0ic2hhcGU1NTEyLTI5IiB0cmFuc2Zvcm09InRyYW5zbGF0ZSg0LjkwMjMyLC03LjM1OTg0KSI+JiN4YTsJCQkJPHRpdGxlIGlkPSJ0aXRsZTExNDIzMSI+U2hlZXQuNTUxMjwvdGl0bGU+JiN4YTsJCQkJPHBhdGggaWQ9InBhdGgxMTQyMzMiIGlua3NjYXBlOmNvbm5lY3Rvci1jdXJ2YXR1cmU9IjAiIHN0eWxlPSJmaWxsOiNERkRGREY7IiBkPSJNMCw0My42VjQ1aDIzLjgxdi0xLjRIMHoiLz4mI3hhOwkJCTwvZz4mI3hhOwkJCTxnIGlkPSJzaGFwZTU1MTMtMzEiIHRyYW5zZm9ybT0idHJhbnNsYXRlKDQuOTAyMzIsLTMuODU1MTUpIj4mI3hhOwkJCQk8dGl0bGUgaWQ9InRpdGxlMTE0MjM2Ij5TaGVldC41NTEzPC90aXRsZT4mI3hhOwkJCQk8cGF0aCBpZD0icGF0aDExNDIzOCIgaW5rc2NhcGU6Y29ubmVjdG9yLWN1cnZhdHVyZT0iMCIgc3R5bGU9ImZpbGw6I0RGREZERjsiIGQ9Ik0wLDQzLjZWNDVoMjMuODF2LTEuNEgweiIvPiYjeGE7CQkJPC9nPiYjeGE7CQkJPGcgaWQ9InNoYXBlNTUxNC0zMyIgdHJhbnNmb3JtPSJ0cmFuc2xhdGUoMzAuODE0NiwtMy44NTUxNSkiPiYjeGE7CQkJCTx0aXRsZSBpZD0idGl0bGUxMTQyNDEiPlNoZWV0LjU1MTQ8L3RpdGxlPiYjeGE7CQkJCTxwYXRoIGlkPSJwYXRoMTE0MjQzIiBpbmtzY2FwZTpjb25uZWN0b3ItY3VydmF0dXJlPSIwIiBzdHlsZT0iZmlsbDojREZERkRGOyIgZD0iTTAsMjkuMjNWNDVoMTguNTZWMjkuMjNIMHoiLz4mI3hhOwkJCTwvZz4mI3hhOwkJPC9nPiYjeGE7CTwvZz4mI3hhOzwvZz4mI3hhOzwvc3ZnPg==;" vertex="1" parent="1">
          <mxGeometry x="364.49999999999994" y="340" width="61" height="45" as="geometry" />
        </mxCell>
        <mxCell id="OoRH-c_TX8An31oA8qig-117" value="" style="edgeStyle=orthogonalEdgeStyle;rounded=0;orthogonalLoop=1;jettySize=auto;html=1;" edge="1" parent="1" source="OoRH-c_TX8An31oA8qig-110" target="OoRH-c_TX8An31oA8qig-111">
          <mxGeometry relative="1" as="geometry" />
        </mxCell>
        <mxCell id="OoRH-c_TX8An31oA8qig-110" value="Open browser&#xa;launch web app" style="shape=image;verticalLabelPosition=bottom;labelBackgroundColor=#ffffff;verticalAlign=top;aspect=fixed;imageAspect=0;image=data:image/svg+xml,PHN2ZyB4bWxuczpjYz0iaHR0cDovL2NyZWF0aXZlY29tbW9ucy5vcmcvbnMjIiB4bWxuczpkYz0iaHR0cDovL3B1cmwub3JnL2RjL2VsZW1lbnRzLzEuMS8iIHhtbG5zOmlua3NjYXBlPSJodHRwOi8vd3d3Lmlua3NjYXBlLm9yZy9uYW1lc3BhY2VzL2lua3NjYXBlIiB4bWxuczpyZGY9Imh0dHA6Ly93d3cudzMub3JnLzE5OTkvMDIvMjItcmRmLXN5bnRheC1ucyMiIHhtbG5zOnNvZGlwb2RpPSJodHRwOi8vc29kaXBvZGkuc291cmNlZm9yZ2UubmV0L0RURC9zb2RpcG9kaS0wLmR0ZCIgeG1sbnM6c3ZnPSJodHRwOi8vd3d3LnczLm9yZy8yMDAwL3N2ZyIgeG1sbnM9Imh0dHA6Ly93d3cudzMub3JnLzIwMDAvc3ZnIiB4bWxuczp4bGluaz0iaHR0cDovL3d3dy53My5vcmcvMTk5OS94bGluayIgdmVyc2lvbj0iMS4xIiBpZD0ic3ZnMTEzNDIyIiBpbmtzY2FwZTp2ZXJzaW9uPSIwLjkyLjMgKDI0MDU1NDYsIDIwMTgtMDMtMTEpIiBzb2RpcG9kaTpkb2NuYW1lPSJ3ZWIuc3ZnIiB4PSIwcHgiIHk9IjBweCIgdmlld0JveD0iMCAwIDM2IDM2IiBzdHlsZT0iZW5hYmxlLWJhY2tncm91bmQ6bmV3IDAgMCAzNiAzNjsiIHhtbDpzcGFjZT0icHJlc2VydmUiPiYjeGE7PHNvZGlwb2RpOm5hbWVkdmlldyBib3JkZXJjb2xvcj0iIzY2NjY2NiIgYm9yZGVyb3BhY2l0eT0iMSIgZml0LW1hcmdpbi1ib3R0b209IjAiIGZpdC1tYXJnaW4tbGVmdD0iMCIgZml0LW1hcmdpbi1yaWdodD0iMCIgZml0LW1hcmdpbi10b3A9IjAiIGdyaWR0b2xlcmFuY2U9IjEwIiBndWlkZXRvbGVyYW5jZT0iMTAiIGlkPSJuYW1lZHZpZXcxMTM0MjQiIGlua3NjYXBlOmN1cnJlbnQtbGF5ZXI9InN2ZzExMzQyMiIgaW5rc2NhcGU6Y3g9IjIzLjYwNDk5IiBpbmtzY2FwZTpjeT0iMjMuOTk5OTc1IiBpbmtzY2FwZTpwYWdlb3BhY2l0eT0iMCIgaW5rc2NhcGU6cGFnZXNoYWRvdz0iMiIgaW5rc2NhcGU6d2luZG93LWhlaWdodD0iMTAxNyIgaW5rc2NhcGU6d2luZG93LW1heGltaXplZD0iMSIgaW5rc2NhcGU6d2luZG93LXdpZHRoPSIxOTIwIiBpbmtzY2FwZTp3aW5kb3cteD0iLTgiIGlua3NjYXBlOndpbmRvdy15PSItOCIgaW5rc2NhcGU6em9vbT0iMTcuMzQwMDExIiBvYmplY3R0b2xlcmFuY2U9IjEwIiBwYWdlY29sb3I9IiNmZmZmZmYiIHNob3dncmlkPSJmYWxzZSI+JiN4YTsJPC9zb2RpcG9kaTpuYW1lZHZpZXc+JiN4YTs8ZyBpZD0iZzExMzQyMCIgdHJhbnNmb3JtPSJ0cmFuc2xhdGUoLTEuMzQyNDksLTAuNzQ3OTIpIj4mI3hhOwk8dGl0bGUgaWQ9InRpdGxlMTEzMzczIj5QYWdlLTE8L3RpdGxlPiYjeGE7CTxnIGlkPSJncm91cDUyNDAtMSIgdHJhbnNmb3JtPSJ0cmFuc2xhdGUoMS41LC0wLjc1KSI+JiN4YTsJCTx0aXRsZSBpZD0idGl0bGUxMTMzNzUiPldlYjwvdGl0bGU+JiN4YTsJCTxnIGlkPSJzaGFwZTUyNDEtMiIgdHJhbnNmb3JtPSJ0cmFuc2xhdGUoNS4zNzk3NCwtNS41MzcyNCkiPiYjeGE7CQkJPHRpdGxlIGlkPSJ0aXRsZTExMzM3NyI+cGF0aDk2MTA8L3RpdGxlPiYjeGE7CQkJPHBhdGggaWQ9InBhdGgxMTMzNzkiIGlua3NjYXBlOmNvbm5lY3Rvci1jdXJ2YXR1cmU9IjAiIHN0eWxlPSJmaWxsOiNGRkZGRkY7IiBkPSJNMzAuMDksMjUuMDRjMCw5LjczLTcuOSwxNy42Mi0xNy42MywxNy42MiAgICAgYy05LjczLDAtMTcuNjItNy45LTE3LjYyLTE3LjYzYzAtOS43Myw3Ljg5LTE3LjYyLDE3LjYyLTE3LjYyQzIyLjE5LDcuNDIsMzAuMDgsMTUuMzEsMzAuMDksMjUuMDR6Ii8+JiN4YTsJCTwvZz4mI3hhOwkJPGcgaWQ9InNoYXBlNTI0Mi00IiB0cmFuc2Zvcm09InRyYW5zbGF0ZSgwLjIxNzQ5MiwtMC4zNzUpIj4mI3hhOwkJCTx0aXRsZSBpZD0idGl0bGUxMTMzODIiPnBhdGg5NjEyPC90aXRsZT4mI3hhOwkJCTxwYXRoIGlkPSJwYXRoMTEzMzg0IiBpbmtzY2FwZTpjb25uZWN0b3ItY3VydmF0dXJlPSIwIiBzdHlsZT0iZmlsbDojRDRFMkY1OyIgZD0iTTM1LjI1LDE5Ljg3YzAsOS43My03Ljg5LDE3LjYzLTE3LjYzLDE3LjYzICAgICBTMCwyOS42LDAsMTkuODdsMCwwSDM1LjI1eiIvPiYjeGE7CQk8L2c+JiN4YTsJCTxnIGlkPSJzaGFwZTUyNDMtNiIgdHJhbnNmb3JtPSJ0cmFuc2xhdGUoMS4zNDI0OSwtNS4yNzIwOCkiPiYjeGE7CQkJPHRpdGxlIGlkPSJ0aXRsZTExMzM4NyI+cGF0aDk2MTQ8L3RpdGxlPiYjeGE7CQkJPHBhdGggaWQ9InBhdGgxMTMzODkiIGlua3NjYXBlOmNvbm5lY3Rvci1jdXJ2YXR1cmU9IjAiIHN0eWxlPSJmaWxsOiM0RDRFNEU7IiBkPSJNMTYuNSw4LjI3YzkuMTEsMCwxNi41LDcuMzksMTYuNSwxNi41ICAgICBzLTcuMzksMTYuNS0xNi41LDE2LjVTMCwzMy44OCwwLDI0Ljc3UzcuMzksOC4yNywxNi41LDguMjd6IE0xNi41LDYuNzdjLTkuOTQsMC0xOCw4LjA2LTE4LDE4czguMDYsMTgsMTgsMThzMTgtOC4wNiwxOC0xOCAgICAgUzI2LjQ0LDYuNzcsMTYuNSw2Ljc3eiIvPiYjeGE7CQk8L2c+JiN4YTsJCTxnIGlkPSJncm91cDUyNDQtOCI+JiN4YTsJCQk8dGl0bGUgaWQ9InRpdGxlMTEzMzkyIj5nOTYyMDwvdGl0bGU+JiN4YTsJCQk8ZyBpZD0ic2hhcGU1MjQ1LTkiIHRyYW5zZm9ybT0idHJhbnNsYXRlKDkuNTkyNDkpIj4mI3hhOwkJCQk8dGl0bGUgaWQ9InRpdGxlMTEzMzk0Ij5wYXRoOTYxNjwvdGl0bGU+JiN4YTsJCQkJPHBhdGggaWQ9InBhdGgxMTMzOTYiIGlua3NjYXBlOmNvbm5lY3Rvci1jdXJ2YXR1cmU9IjAiIHN0eWxlPSJmaWxsOiM0RDRFNEU7IiBkPSJNNy44NywzLjJjMywwLDYuMzgsNy4wMSw2LjM4LDE2LjQgICAgICBjMCw5LjM4LTMuMzgsMTYuNC02LjM4LDE2LjRTMS41LDI4Ljk5LDEuNSwxOS42QzEuNSwxMC4yMiw0Ljg3LDMuMiw3Ljg3LDMuMnogTTcuODcsMS43QzMuNTIsMS43LDAsOS43MSwwLDE5LjYgICAgICBjMCw5Ljg4LDMuNTIsMTcuOSw3Ljg3LDE3LjlzNy44OC04LjAxLDcuODgtMTcuOUMxNS43NSw5LjcyLDEyLjIyLDEuNyw3Ljg3LDEuN3oiLz4mI3hhOwkJCTwvZz4mI3hhOwkJCTxnIGlkPSJzaGFwZTUyNDYtMTEiIHRyYW5zZm9ybT0idHJhbnNsYXRlKDAsLTE4KSI+JiN4YTsJCQkJPHRpdGxlIGlkPSJ0aXRsZTExMzM5OSI+bGluZTk2MTg8L3RpdGxlPiYjeGE7CQkJCSYjeGE7CQkJCQk8cGF0aCBpZD0icGF0aDExMzQwMSIgaW5rc2NhcGU6Y29ubmVjdG9yLWN1cnZhdHVyZT0iMCIgc3R5bGU9ImZpbGw6bm9uZTtzdHJva2U6IzRENEU0RTtzdHJva2Utd2lkdGg6MS41O3N0cm9rZS1taXRlcmxpbWl0OjM7IiBkPSIgICAgICBNMCwzNy41aDM1LjA5Ii8+JiN4YTsJCQk8L2c+JiN4YTsJCTwvZz4mI3hhOwkJPGcgaWQ9InNoYXBlNTI0Ny0xNCIgdHJhbnNmb3JtPSJ0cmFuc2xhdGUoNC4zNDk5OSwtMjcpIj4mI3hhOwkJCTx0aXRsZSBpZD0idGl0bGUxMTM0MDUiPnBhdGg5NjIyPC90aXRsZT4mI3hhOwkJCTxwYXRoIGlkPSJwYXRoMTEzNDA3IiBpbmtzY2FwZTpjb25uZWN0b3ItY3VydmF0dXJlPSIwIiBzdHlsZT0iZmlsbDpub25lOyIgZD0iTTAsMzUuNDdjMy4yOSwxLjI4LDguMTIsMi4wMywxMy40OSwyLjAzICAgICBzMTAuMi0wLjc1LDEzLjUtMi4wM0gweiIvPiYjeGE7CQkJJiN4YTsJCQkJPHBhdGggaWQ9InBhdGgxMTM0MDkiIGlua3NjYXBlOmNvbm5lY3Rvci1jdXJ2YXR1cmU9IjAiIHN0eWxlPSJmaWxsOm5vbmU7c3Ryb2tlOiM0RDRFNEU7c3Ryb2tlLXdpZHRoOjEuNTtzdHJva2UtbWl0ZXJsaW1pdDozOyIgZD0iICAgICBNMCwzNS40N2MzLjI5LDEuMjgsOC4xMiwyLjAzLDEzLjQ5LDIuMDNzMTAuMi0wLjc1LDEzLjUtMi4wMyIvPiYjeGE7CQk8L2c+JiN4YTsJCTxnIGlkPSJzaGFwZTUyNDgtMTciIHRyYW5zZm9ybT0idHJhbnNsYXRlKDQuMzQ5OTksLTYuOTY3NSkiPiYjeGE7CQkJPHRpdGxlIGlkPSJ0aXRsZTExMzQxMiI+cGF0aDk2MjQ8L3RpdGxlPiYjeGE7CQkJPHBhdGggaWQ9InBhdGgxMTM0MTQiIGlua3NjYXBlOmNvbm5lY3Rvci1jdXJ2YXR1cmU9IjAiIHN0eWxlPSJmaWxsOm5vbmU7IiBkPSJNMCwzNy41YzMuMjktMS4yOCw4LjEyLTIuMDMsMTMuNDktMi4wMyAgICAgczEwLjIsMC43NSwxMy41LDIuMDNIMHoiLz4mI3hhOwkJCSYjeGE7CQkJCTxwYXRoIGlkPSJwYXRoMTEzNDE2IiBpbmtzY2FwZTpjb25uZWN0b3ItY3VydmF0dXJlPSIwIiBzdHlsZT0iZmlsbDpub25lO3N0cm9rZTojNEQ0RTRFO3N0cm9rZS13aWR0aDoxLjU7c3Ryb2tlLW1pdGVybGltaXQ6MzsiIGQ9IiAgICAgTTAsMzcuNWMzLjI5LTEuMjgsOC4xMi0yLjAzLDEzLjQ5LTIuMDNzMTAuMiwwLjc1LDEzLjUsMi4wMyIvPiYjeGE7CQk8L2c+JiN4YTsJPC9nPiYjeGE7PC9nPiYjeGE7PC9zdmc+;" vertex="1" parent="1">
          <mxGeometry x="60" y="110" width="36" height="36" as="geometry" />
        </mxCell>
        <mxCell id="OoRH-c_TX8An31oA8qig-118" value="" style="edgeStyle=orthogonalEdgeStyle;rounded=0;orthogonalLoop=1;jettySize=auto;html=1;" edge="1" parent="1" source="OoRH-c_TX8An31oA8qig-111" target="OoRH-c_TX8An31oA8qig-108">
          <mxGeometry relative="1" as="geometry" />
        </mxCell>
        <mxCell id="OoRH-c_TX8An31oA8qig-111" value="delay to load" style="shape=image;verticalLabelPosition=bottom;labelBackgroundColor=#ffffff;verticalAlign=top;aspect=fixed;imageAspect=0;image=data:image/svg+xml,PHN2ZyB4bWxuczpjYz0iaHR0cDovL2NyZWF0aXZlY29tbW9ucy5vcmcvbnMjIiB4bWxuczpkYz0iaHR0cDovL3B1cmwub3JnL2RjL2VsZW1lbnRzLzEuMS8iIHhtbG5zOmlua3NjYXBlPSJodHRwOi8vd3d3Lmlua3NjYXBlLm9yZy9uYW1lc3BhY2VzL2lua3NjYXBlIiB4bWxuczpyZGY9Imh0dHA6Ly93d3cudzMub3JnLzE5OTkvMDIvMjItcmRmLXN5bnRheC1ucyMiIHhtbG5zOnNvZGlwb2RpPSJodHRwOi8vc29kaXBvZGkuc291cmNlZm9yZ2UubmV0L0RURC9zb2RpcG9kaS0wLmR0ZCIgeG1sbnM6c3ZnPSJodHRwOi8vd3d3LnczLm9yZy8yMDAwL3N2ZyIgeG1sbnM9Imh0dHA6Ly93d3cudzMub3JnLzIwMDAvc3ZnIiB4bWxuczp4bGluaz0iaHR0cDovL3d3dy53My5vcmcvMTk5OS94bGluayIgdmVyc2lvbj0iMS4xIiBpZD0ic3ZnODc3ODQiIGlua3NjYXBlOnZlcnNpb249IjAuOTIuMyAoMjQwNTU0NiwgMjAxOC0wMy0xMSkiIHNvZGlwb2RpOmRvY25hbWU9ImxvYWRpbmcuc3ZnIiB4PSIwcHgiIHk9IjBweCIgdmlld0JveD0iMCAwIDIwLjA1IDIwLjA1IiBzdHlsZT0iZW5hYmxlLWJhY2tncm91bmQ6bmV3IDAgMCAyMC4wNSAyMC4wNTsiIHhtbDpzcGFjZT0icHJlc2VydmUiPiYjeGE7PHNvZGlwb2RpOm5hbWVkdmlldyBib3JkZXJjb2xvcj0iIzY2NjY2NiIgYm9yZGVyb3BhY2l0eT0iMSIgZml0LW1hcmdpbi1ib3R0b209IjAiIGZpdC1tYXJnaW4tbGVmdD0iMCIgZml0LW1hcmdpbi1yaWdodD0iMCIgZml0LW1hcmdpbi10b3A9IjAiIGdyaWR0b2xlcmFuY2U9IjEwIiBndWlkZXRvbGVyYW5jZT0iMTAiIGlkPSJuYW1lZHZpZXc4Nzc4NiIgaW5rc2NhcGU6Y3VycmVudC1sYXllcj0ic3ZnODc3ODQiIGlua3NjYXBlOmN4PSIxMy4zNjYzMTkiIGlua3NjYXBlOmN5PSIxMy4zNzIzMiIgaW5rc2NhcGU6cGFnZW9wYWNpdHk9IjAiIGlua3NjYXBlOnBhZ2VzaGFkb3c9IjIiIGlua3NjYXBlOndpbmRvdy1oZWlnaHQ9IjEwMTciIGlua3NjYXBlOndpbmRvdy1tYXhpbWl6ZWQ9IjEiIGlua3NjYXBlOndpbmRvdy13aWR0aD0iMTkyMCIgaW5rc2NhcGU6d2luZG93LXg9Ii04IiBpbmtzY2FwZTp3aW5kb3cteT0iLTgiIGlua3NjYXBlOnpvb209IjI4LjU4ODA0NiIgb2JqZWN0dG9sZXJhbmNlPSIxMCIgcGFnZWNvbG9yPSIjZmZmZmZmIiBzaG93Z3JpZD0iZmFsc2UiPiYjeGE7CTwvc29kaXBvZGk6bmFtZWR2aWV3PiYjeGE7PGcgaWQ9Imc4Nzc4MiIgdHJhbnNmb3JtPSJ0cmFuc2xhdGUoLTEuMzQ4MDIsLTEuMzUxMTgpIj4mI3hhOwk8dGl0bGUgaWQ9InRpdGxlODc3MjIiPlBhZ2UtMTwvdGl0bGU+JiN4YTsJPGcgaWQ9Imdyb3VwNTg3NS0xIiB0cmFuc2Zvcm09InRyYW5zbGF0ZSgxLjM0ODAyLC0xLjM0ODAyKSI+JiN4YTsJCTx0aXRsZSBpZD0idGl0bGU4NzcyNCI+TG9hZGluZzwvdGl0bGU+JiN4YTsJCTxnIGlkPSJzaGFwZTU4NzYtMiIgdHJhbnNmb3JtPSJ0cmFuc2xhdGUoOS4wMzIyMSwtMTQuODgwOCkiPiYjeGE7CQkJPHRpdGxlIGlkPSJ0aXRsZTg3NzI2Ij5TaGVldC41ODc2PC90aXRsZT4mI3hhOwkJCTxwYXRoIGlkPSJwYXRoODc3MjgiIGlua3NjYXBlOmNvbm5lY3Rvci1jdXJ2YXR1cmU9IjAiIHN0eWxlPSJmaWxsOiNEMzgxNzY7IiBkPSJNMC45OSwyMi43NWMtMC41NSwwLTAuOTktMC40NS0wLjk5LTF2LTMuMTggICAgIGMwLTAuNTUsMC40NC0wLjk5LDAuOTktMC45OXMxLDAuNDQsMSwwLjk5djMuMThDMS45OSwyMi4zLDEuNTQsMjIuNzUsMC45OSwyMi43NXoiLz4mI3hhOwkJPC9nPiYjeGE7CQk8ZyBpZD0ic2hhcGU1ODc3LTQiIHRyYW5zZm9ybT0idHJhbnNsYXRlKDkuMDMyMjEpIj4mI3hhOwkJCTx0aXRsZSBpZD0idGl0bGU4NzczMSI+U2hlZXQuNTg3NzwvdGl0bGU+JiN4YTsJCQk8cGF0aCBpZD0icGF0aDg3NzMzIiBpbmtzY2FwZTpjb25uZWN0b3ItY3VydmF0dXJlPSIwIiBzdHlsZT0iZmlsbDojRURCMkIyOyIgZD0iTTAuOTksMjIuNzVjLTAuNTUsMC0wLjk5LTAuNDUtMC45OS0xdi0zLjE4ICAgICBjMC0wLjU1LDAuNDQtMC45OSwwLjk5LTAuOTlzMSwwLjQ0LDEsMC45OXYzLjE4QzEuOTksMjIuMywxLjU0LDIyLjc1LDAuOTksMjIuNzV6Ii8+JiN4YTsJCTwvZz4mI3hhOwkJPGcgaWQ9InNoYXBlNTg3OC02IiB0cmFuc2Zvcm09InRyYW5zbGF0ZSgxMS44MTU1LC0xLjIwOTc3KSI+JiN4YTsJCQk8dGl0bGUgaWQ9InRpdGxlODc3MzYiPlNoZWV0LjU4Nzg8L3RpdGxlPiYjeGE7CQkJPHBhdGggaWQ9InBhdGg4NzczOCIgaW5rc2NhcGU6Y29ubmVjdG9yLWN1cnZhdHVyZT0iMCIgc3R5bGU9ImZpbGw6I0U1QTVBMzsiIGQ9Ik0yLjczLDIyLjc1Yy0wLjM1LDAtMC42OC0wLjE4LTAuODYtMC41ICAgICBsLTEuNi0yLjc2QzAsMTkuMDIsMC4xNiwxOC40MSwwLjY0LDE4LjE0YzAuNDctMC4yOCwxLjA4LTAuMTIsMS4zNSwwLjM2bDEuNTksMi43NmMwLjI4LDAuNDcsMC4xMiwxLjA4LTAuMzYsMS4zNSAgICAgQzMuMDcsMjIuNywyLjg5LDIyLjc1LDIuNzMsMjIuNzV6Ii8+JiN4YTsJCTwvZz4mI3hhOwkJPGcgaWQ9InNoYXBlNTg3OS04IiB0cmFuc2Zvcm09InRyYW5zbGF0ZSgxLjA2OTA5LC0xMS45NTYzKSI+JiN4YTsJCQk8dGl0bGUgaWQ9InRpdGxlODc3NDEiPlNoZWV0LjU4Nzk8L3RpdGxlPiYjeGE7CQkJPHBhdGggaWQ9InBhdGg4Nzc0MyIgaW5rc2NhcGU6Y29ubmVjdG9yLWN1cnZhdHVyZT0iMCIgc3R5bGU9ImZpbGw6I0VBQ0VDRTsiIGQ9Ik0zLjg5LDIyLjc1Yy0wLjE3LDAtMC4zNC0wLjA1LTAuNS0wLjE0ICAgICBsLTIuNzUtMS41OUMwLjE2LDIwLjc1LDAsMjAuMTQsMC4yNywxOS42NmMwLjI4LTAuNDcsMC44OS0wLjYzLDEuMzYtMC4zNmwyLjc2LDEuNTljMC40NywwLjI4LDAuNjMsMC44OCwwLjM2LDEuMzYgICAgIEM0LjU3LDIyLjU3LDQuMjMsMjIuNzUsMy44OSwyMi43NXoiLz4mI3hhOwkJPC9nPiYjeGE7CQk8ZyBpZD0ic2hhcGU1ODgwLTEwIiB0cmFuc2Zvcm09InRyYW5zbGF0ZSgxMy45NTYzLC00LjUxNTc4KSI+JiN4YTsJCQk8dGl0bGUgaWQ9InRpdGxlODc3NDYiPlNoZWV0LjU4ODA8L3RpdGxlPiYjeGE7CQkJPHBhdGggaWQ9InBhdGg4Nzc0OCIgaW5rc2NhcGU6Y29ubmVjdG9yLWN1cnZhdHVyZT0iMCIgc3R5bGU9ImZpbGw6I0UwOTg5NDsiIGQ9Ik0zLjg5LDIyLjc1Yy0wLjE3LDAtMC4zNC0wLjA1LTAuNS0wLjE0ICAgICBsLTIuNzUtMS41OUMwLjE2LDIwLjc1LDAsMjAuMTQsMC4yNywxOS42NmMwLjI4LTAuNDcsMC44OC0wLjYzLDEuMzYtMC4zNmwyLjc2LDEuNTljMC40NywwLjI4LDAuNjMsMC44OCwwLjM2LDEuMzYgICAgIEM0LjU3LDIyLjU3LDQuMjMsMjIuNzUsMy44OSwyMi43NXoiLz4mI3hhOwkJPC9nPiYjeGE7CQk8ZyBpZD0ic2hhcGU1ODgxLTEyIiB0cmFuc2Zvcm09InRyYW5zbGF0ZSgwLC05LjAzMjA4KSI+JiN4YTsJCQk8dGl0bGUgaWQ9InRpdGxlODc3NTEiPlNoZWV0LjU4ODE8L3RpdGxlPiYjeGE7CQkJPHBhdGggaWQ9InBhdGg4Nzc1MyIgaW5rc2NhcGU6Y29ubmVjdG9yLWN1cnZhdHVyZT0iMCIgc3R5bGU9ImZpbGw6I0VGRDNEMzsiIGQ9Ik00LjE4LDIyLjc1SDAuOTljLTAuNTUsMC0wLjk5LTAuNDUtMC45OS0xICAgICBzMC40NC0wLjk5LDAuOTktMC45OWgzLjE5YzAuNTQsMCwwLjk5LDAuNDQsMC45OSwwLjk5UzQuNzIsMjIuNzUsNC4xOCwyMi43NXoiLz4mI3hhOwkJPC9nPiYjeGE7CQk8ZyBpZD0ic2hhcGU1ODgyLTE0IiB0cmFuc2Zvcm09InRyYW5zbGF0ZSgxNC44ODA4LC05LjAzMjA4KSI+JiN4YTsJCQk8dGl0bGUgaWQ9InRpdGxlODc3NTYiPlNoZWV0LjU4ODI8L3RpdGxlPiYjeGE7CQkJPHBhdGggaWQ9InBhdGg4Nzc1OCIgaW5rc2NhcGU6Y29ubmVjdG9yLWN1cnZhdHVyZT0iMCIgc3R5bGU9ImZpbGw6I0Q2OEQ4NTsiIGQ9Ik00LjE4LDIyLjc1SDAuOTljLTAuNTUsMC0wLjk5LTAuNDUtMC45OS0xICAgICBzMC40NC0wLjk5LDAuOTktMC45OWgzLjE5YzAuNTQsMCwwLjk5LDAuNDQsMC45OSwwLjk5UzQuNzIsMjIuNzUsNC4xOCwyMi43NXoiLz4mI3hhOwkJPC9nPiYjeGE7CQk8ZyBpZD0ic2hhcGU1ODgzLTE2IiB0cmFuc2Zvcm09InRyYW5zbGF0ZSgxLjA2OTA5LC00LjUxNTc4KSI+JiN4YTsJCQk8dGl0bGUgaWQ9InRpdGxlODc3NjEiPlNoZWV0LjU4ODM8L3RpdGxlPiYjeGE7CQkJPHBhdGggaWQ9InBhdGg4Nzc2MyIgaW5rc2NhcGU6Y29ubmVjdG9yLWN1cnZhdHVyZT0iMCIgc3R5bGU9ImZpbGw6I0VEQzhDODsiIGQ9Ik0xLjEzLDIyLjc1Yy0wLjM0LDAtMC42Ny0wLjE4LTAuODYtMC41ICAgICBDMCwyMS43NywwLjE2LDIxLjE3LDAuNjQsMjAuODlsMi43NS0xLjU5YzAuNDgtMC4yNywxLjA5LTAuMTEsMS4zNiwwLjM2YzAuMjcsMC40OCwwLjExLDEuMDktMC4zNiwxLjM2bC0yLjc2LDEuNTkgICAgIEMxLjQ3LDIyLjcsMS4zLDIyLjc1LDEuMTMsMjIuNzV6Ii8+JiN4YTsJCTwvZz4mI3hhOwkJPGcgaWQ9InNoYXBlNTg4NC0xOCIgdHJhbnNmb3JtPSJ0cmFuc2xhdGUoMTMuOTU2MywtMTEuOTU2MykiPiYjeGE7CQkJPHRpdGxlIGlkPSJ0aXRsZTg3NzY2Ij5TaGVldC41ODg0PC90aXRsZT4mI3hhOwkJCTxwYXRoIGlkPSJwYXRoODc3NjgiIGlua3NjYXBlOmNvbm5lY3Rvci1jdXJ2YXR1cmU9IjAiIHN0eWxlPSJmaWxsOiNDQzg2ODE7IiBkPSJNMS4xMywyMi43NWMtMC4zNCwwLTAuNjctMC4xOC0wLjg2LTAuNSAgICAgQzAsMjEuNzcsMC4xNiwyMS4xNywwLjY0LDIwLjg5bDIuNzUtMS41OWMwLjQ4LTAuMjcsMS4wOS0wLjExLDEuMzYsMC4zNmMwLjI3LDAuNDgsMC4xMSwxLjA5LTAuMzYsMS4zNmwtMi43NiwxLjU5ICAgICBDMS40NywyMi43LDEuMywyMi43NSwxLjEzLDIyLjc1eiIvPiYjeGE7CQk8L2c+JiN4YTsJCTxnIGlkPSJzaGFwZTU4ODUtMjAiIHRyYW5zZm9ybT0idHJhbnNsYXRlKDQuMzc1MDksLTEuMjA5NzcpIj4mI3hhOwkJCTx0aXRsZSBpZD0idGl0bGU4Nzc3MSI+U2hlZXQuNTg4NTwvdGl0bGU+JiN4YTsJCQk8cGF0aCBpZD0icGF0aDg3NzczIiBpbmtzY2FwZTpjb25uZWN0b3ItY3VydmF0dXJlPSIwIiBzdHlsZT0iZmlsbDojRURCQ0JDOyIgZD0iTTEuMTMsMjIuNzVjLTAuMTcsMC0wLjM0LTAuMDUtMC40OS0wLjE0ICAgICBDMC4xNiwyMi4zNCwwLDIxLjczLDAuMjcsMjEuMjZsMS42LTIuNzZjMC4yNy0wLjQ4LDAuODgtMC42NCwxLjM1LTAuMzZjMC40OCwwLjI3LDAuNjQsMC44OCwwLjM2LDEuMzVsLTEuNTksMi43NiAgICAgQzEuODEsMjIuNTcsMS40OCwyMi43NSwxLjEzLDIyLjc1eiIvPiYjeGE7CQk8L2c+JiN4YTsJCTxnIGlkPSJzaGFwZTU4ODYtMjIiIHRyYW5zZm9ybT0idHJhbnNsYXRlKDExLjgxNTUsLTE0LjA5NzEpIj4mI3hhOwkJCTx0aXRsZSBpZD0idGl0bGU4Nzc3NiI+U2hlZXQuNTg4NjwvdGl0bGU+JiN4YTsJCQk8cGF0aCBpZD0icGF0aDg3Nzc4IiBpbmtzY2FwZTpjb25uZWN0b3ItY3VydmF0dXJlPSIwIiBzdHlsZT0iZmlsbDojQ0M4NjgxOyIgZD0iTTEuMTMsMjIuNzVjLTAuMTcsMC0wLjM0LTAuMDUtMC40OS0wLjE0ICAgICBDMC4xNiwyMi4zNCwwLDIxLjczLDAuMjcsMjEuMjZsMS42LTIuNzZjMC4yNy0wLjQ4LDAuODgtMC42NCwxLjM1LTAuMzZjMC40OCwwLjI3LDAuNjQsMC44OCwwLjM2LDEuMzVsLTEuNTksMi43NiAgICAgQzEuODEsMjIuNTcsMS40OCwyMi43NSwxLjEzLDIyLjc1eiIvPiYjeGE7CQk8L2c+JiN4YTsJPC9nPiYjeGE7PC9nPiYjeGE7PC9zdmc+;" vertex="1" parent="1">
          <mxGeometry x="170" y="118" width="20" height="20" as="geometry" />
        </mxCell>
        <mxCell id="OoRH-c_TX8An31oA8qig-125" value="" style="edgeStyle=orthogonalEdgeStyle;rounded=0;orthogonalLoop=1;jettySize=auto;html=1;" edge="1" parent="1" source="OoRH-c_TX8An31oA8qig-151" target="OoRH-c_TX8An31oA8qig-124">
          <mxGeometry relative="1" as="geometry">
            <mxPoint x="635.9099999999999" y="286.5" as="sourcePoint" />
          </mxGeometry>
        </mxCell>
        <mxCell id="OoRH-c_TX8An31oA8qig-121" value="" style="edgeStyle=orthogonalEdgeStyle;rounded=0;orthogonalLoop=1;jettySize=auto;html=1;" edge="1" parent="1" source="OoRH-c_TX8An31oA8qig-113" target="OoRH-c_TX8An31oA8qig-109">
          <mxGeometry relative="1" as="geometry" />
        </mxCell>
        <mxCell id="OoRH-c_TX8An31oA8qig-123" value="" style="edgeStyle=orthogonalEdgeStyle;rounded=0;orthogonalLoop=1;jettySize=auto;html=1;" edge="1" parent="1" source="OoRH-c_TX8An31oA8qig-113" target="OoRH-c_TX8An31oA8qig-106">
          <mxGeometry relative="1" as="geometry" />
        </mxCell>
        <mxCell id="OoRH-c_TX8An31oA8qig-113" value="click add customer" style="shape=image;html=1;verticalAlign=top;verticalLabelPosition=bottom;labelBackgroundColor=#ffffff;imageAspect=0;aspect=fixed;image=https://cdn4.iconfinder.com/data/icons/line-basic-ecommerce/64/icons_ecommerce_line-41-128.png" vertex="1" parent="1">
          <mxGeometry x="376" y="190" width="37.5" height="37.5" as="geometry" />
        </mxCell>
        <mxCell id="OoRH-c_TX8An31oA8qig-120" value="" style="edgeStyle=orthogonalEdgeStyle;rounded=0;orthogonalLoop=1;jettySize=auto;html=1;" edge="1" parent="1" source="OoRH-c_TX8An31oA8qig-115" target="OoRH-c_TX8An31oA8qig-113">
          <mxGeometry relative="1" as="geometry" />
        </mxCell>
        <mxCell id="OoRH-c_TX8An31oA8qig-148" value="failed" style="edgeStyle=orthogonalEdgeStyle;rounded=0;orthogonalLoop=1;jettySize=auto;html=1;entryX=0;entryY=0.5;entryDx=0;entryDy=0;" edge="1" parent="1" source="OoRH-c_TX8An31oA8qig-115" target="OoRH-c_TX8An31oA8qig-146">
          <mxGeometry relative="1" as="geometry">
            <mxPoint x="480" y="128.10000000000002" as="targetPoint" />
          </mxGeometry>
        </mxCell>
        <mxCell id="OoRH-c_TX8An31oA8qig-115" value="success" style="shape=image;verticalLabelPosition=bottom;labelBackgroundColor=#ffffff;verticalAlign=top;aspect=fixed;imageAspect=0;image=data:image/svg+xml,PHN2ZyB4bWxuczpjYz0iaHR0cDovL2NyZWF0aXZlY29tbW9ucy5vcmcvbnMjIiB4bWxuczpkYz0iaHR0cDovL3B1cmwub3JnL2RjL2VsZW1lbnRzLzEuMS8iIHhtbG5zOmlua3NjYXBlPSJodHRwOi8vd3d3Lmlua3NjYXBlLm9yZy9uYW1lc3BhY2VzL2lua3NjYXBlIiB4bWxuczpyZGY9Imh0dHA6Ly93d3cudzMub3JnLzE5OTkvMDIvMjItcmRmLXN5bnRheC1ucyMiIHhtbG5zOnNvZGlwb2RpPSJodHRwOi8vc29kaXBvZGkuc291cmNlZm9yZ2UubmV0L0RURC9zb2RpcG9kaS0wLmR0ZCIgeG1sbnM6c3ZnPSJodHRwOi8vd3d3LnczLm9yZy8yMDAwL3N2ZyIgeG1sbnM9Imh0dHA6Ly93d3cudzMub3JnLzIwMDAvc3ZnIiB4bWxuczp4bGluaz0iaHR0cDovL3d3dy53My5vcmcvMTk5OS94bGluayIgdmVyc2lvbj0iMS4xIiBpZD0ic3ZnMTIzMzE1IiBpbmtzY2FwZTp2ZXJzaW9uPSIwLjkyLjMgKDI0MDU1NDYsIDIwMTgtMDMtMTEpIiBzb2RpcG9kaTpkb2NuYW1lPSJjb25kaXRpb25zLnN2ZyIgeD0iMHB4IiB5PSIwcHgiIHZpZXdCb3g9IjAgMCA1Mi44NCAzNi4xNSIgc3R5bGU9ImVuYWJsZS1iYWNrZ3JvdW5kOm5ldyAwIDAgNTIuODQgMzYuMTU7IiB4bWw6c3BhY2U9InByZXNlcnZlIj4mI3hhOzxzb2RpcG9kaTpuYW1lZHZpZXcgYm9yZGVyY29sb3I9IiM2NjY2NjYiIGJvcmRlcm9wYWNpdHk9IjEiIGZpdC1tYXJnaW4tYm90dG9tPSIwIiBmaXQtbWFyZ2luLWxlZnQ9IjAiIGZpdC1tYXJnaW4tcmlnaHQ9IjAiIGZpdC1tYXJnaW4tdG9wPSIwIiBncmlkdG9sZXJhbmNlPSIxMCIgZ3VpZGV0b2xlcmFuY2U9IjEwIiBpZD0ibmFtZWR2aWV3MTIzMzE3IiBpbmtzY2FwZTpjdXJyZW50LWxheWVyPSJzdmcxMjMzMTUiIGlua3NjYXBlOmN4PSIzNS4yMjkxMiIgaW5rc2NhcGU6Y3k9IjI0LjA5NjcyMyIgaW5rc2NhcGU6cGFnZW9wYWNpdHk9IjAiIGlua3NjYXBlOnBhZ2VzaGFkb3c9IjIiIGlua3NjYXBlOndpbmRvdy1oZWlnaHQ9IjEwMTciIGlua3NjYXBlOndpbmRvdy1tYXhpbWl6ZWQ9IjEiIGlua3NjYXBlOndpbmRvdy13aWR0aD0iMTkyMCIgaW5rc2NhcGU6d2luZG93LXg9Ii04IiBpbmtzY2FwZTp3aW5kb3cteT0iLTgiIGlua3NjYXBlOnpvb209IjE3Ljk4NTEyOCIgb2JqZWN0dG9sZXJhbmNlPSIxMCIgcGFnZWNvbG9yPSIjZmZmZmZmIiBzaG93Z3JpZD0iZmFsc2UiPiYjeGE7CTwvc29kaXBvZGk6bmFtZWR2aWV3PiYjeGE7PGcgaWQ9ImcxMjMzMTMiPiYjeGE7CTx0aXRsZSBpZD0idGl0bGUxMjMzMDYiPlBhZ2UtMTwvdGl0bGU+JiN4YTsJPGcgaWQ9InNoYXBlMjkyNy0xIj4mI3hhOwkJPHRpdGxlIGlkPSJ0aXRsZTEyMzMwOCI+Q29uZGl0aW9uczwvdGl0bGU+JiN4YTsJCTxwYXRoIGlkPSJwYXRoMTIzMzEwIiBpbmtzY2FwZTpjb25uZWN0b3ItY3VydmF0dXJlPSIwIiBzdHlsZT0iZmlsbDojMDBCQ0YyOyIgZD0iTTAsMTguMDhMMjYuNDIsMGwyNi40MiwxOC4wOEwyNi40MiwzNi4xNSAgICBMMCwxOC4wOHoiLz4mI3hhOwk8L2c+JiN4YTs8L2c+JiN4YTs8L3N2Zz4=;" vertex="1" parent="1">
          <mxGeometry x="380" y="118" width="29.44" height="20" as="geometry" />
        </mxCell>
        <mxCell id="OoRH-c_TX8An31oA8qig-131" style="edgeStyle=orthogonalEdgeStyle;rounded=0;orthogonalLoop=1;jettySize=auto;html=1;entryX=1;entryY=0.75;entryDx=0;entryDy=0;" edge="1" parent="1" source="OoRH-c_TX8An31oA8qig-124" target="OoRH-c_TX8An31oA8qig-109">
          <mxGeometry relative="1" as="geometry">
            <Array as="points">
              <mxPoint x="750" y="374" />
            </Array>
          </mxGeometry>
        </mxCell>
        <mxCell id="OoRH-c_TX8An31oA8qig-124" value="read data and load" style="shape=process;whiteSpace=wrap;html=1;backgroundOutline=1;verticalAlign=top;labelBackgroundColor=#ffffff;" vertex="1" parent="1">
          <mxGeometry x="710" y="266.5" width="80" height="41.25" as="geometry" />
        </mxCell>
        <mxCell id="OoRH-c_TX8An31oA8qig-133" style="edgeStyle=orthogonalEdgeStyle;rounded=0;orthogonalLoop=1;jettySize=auto;html=1;entryX=0.5;entryY=1;entryDx=0;entryDy=0;exitX=0;exitY=0.5;exitDx=0;exitDy=0;" edge="1" parent="1" source="OoRH-c_TX8An31oA8qig-132" target="OoRH-c_TX8An31oA8qig-135">
          <mxGeometry relative="1" as="geometry">
            <mxPoint x="330" y="470" as="sourcePoint" />
            <Array as="points">
              <mxPoint x="180" y="485" />
            </Array>
          </mxGeometry>
        </mxCell>
        <mxCell id="OoRH-c_TX8An31oA8qig-132" value="click add" style="shape=image;html=1;verticalAlign=top;verticalLabelPosition=bottom;labelBackgroundColor=#ffffff;imageAspect=0;aspect=fixed;image=https://cdn4.iconfinder.com/data/icons/line-basic-ecommerce/64/icons_ecommerce_line-41-128.png" vertex="1" parent="1">
          <mxGeometry x="380" y="470" width="30" height="30" as="geometry" />
        </mxCell>
        <mxCell id="OoRH-c_TX8An31oA8qig-136" value="success loop each record" style="edgeStyle=orthogonalEdgeStyle;rounded=0;orthogonalLoop=1;jettySize=auto;html=1;entryX=0;entryY=0.5;entryDx=0;entryDy=0;exitX=0.5;exitY=0;exitDx=0;exitDy=0;" edge="1" parent="1" source="OoRH-c_TX8An31oA8qig-135" target="OoRH-c_TX8An31oA8qig-113">
          <mxGeometry x="0.1502" relative="1" as="geometry">
            <Array as="points">
              <mxPoint x="180" y="209" />
            </Array>
            <mxPoint as="offset" />
          </mxGeometry>
        </mxCell>
        <mxCell id="OoRH-c_TX8An31oA8qig-138" value="failed" style="edgeStyle=orthogonalEdgeStyle;rounded=0;orthogonalLoop=1;jettySize=auto;html=1;" edge="1" parent="1" source="OoRH-c_TX8An31oA8qig-135" target="OoRH-c_TX8An31oA8qig-142">
          <mxGeometry x="-0.3548" y="2" relative="1" as="geometry">
            <mxPoint x="96" y="308" as="targetPoint" />
            <mxPoint as="offset" />
          </mxGeometry>
        </mxCell>
        <mxCell id="OoRH-c_TX8An31oA8qig-135" value="" style="shape=image;verticalLabelPosition=bottom;labelBackgroundColor=#ffffff;verticalAlign=top;aspect=fixed;imageAspect=0;image=data:image/svg+xml,PHN2ZyB4bWxuczpjYz0iaHR0cDovL2NyZWF0aXZlY29tbW9ucy5vcmcvbnMjIiB4bWxuczpkYz0iaHR0cDovL3B1cmwub3JnL2RjL2VsZW1lbnRzLzEuMS8iIHhtbG5zOmlua3NjYXBlPSJodHRwOi8vd3d3Lmlua3NjYXBlLm9yZy9uYW1lc3BhY2VzL2lua3NjYXBlIiB4bWxuczpyZGY9Imh0dHA6Ly93d3cudzMub3JnLzE5OTkvMDIvMjItcmRmLXN5bnRheC1ucyMiIHhtbG5zOnNvZGlwb2RpPSJodHRwOi8vc29kaXBvZGkuc291cmNlZm9yZ2UubmV0L0RURC9zb2RpcG9kaS0wLmR0ZCIgeG1sbnM6c3ZnPSJodHRwOi8vd3d3LnczLm9yZy8yMDAwL3N2ZyIgeG1sbnM9Imh0dHA6Ly93d3cudzMub3JnLzIwMDAvc3ZnIiB4bWxuczp4bGluaz0iaHR0cDovL3d3dy53My5vcmcvMTk5OS94bGluayIgdmVyc2lvbj0iMS4xIiBpZD0ic3ZnMTIzMzE1IiBpbmtzY2FwZTp2ZXJzaW9uPSIwLjkyLjMgKDI0MDU1NDYsIDIwMTgtMDMtMTEpIiBzb2RpcG9kaTpkb2NuYW1lPSJjb25kaXRpb25zLnN2ZyIgeD0iMHB4IiB5PSIwcHgiIHZpZXdCb3g9IjAgMCA1Mi44NCAzNi4xNSIgc3R5bGU9ImVuYWJsZS1iYWNrZ3JvdW5kOm5ldyAwIDAgNTIuODQgMzYuMTU7IiB4bWw6c3BhY2U9InByZXNlcnZlIj4mI3hhOzxzb2RpcG9kaTpuYW1lZHZpZXcgYm9yZGVyY29sb3I9IiM2NjY2NjYiIGJvcmRlcm9wYWNpdHk9IjEiIGZpdC1tYXJnaW4tYm90dG9tPSIwIiBmaXQtbWFyZ2luLWxlZnQ9IjAiIGZpdC1tYXJnaW4tcmlnaHQ9IjAiIGZpdC1tYXJnaW4tdG9wPSIwIiBncmlkdG9sZXJhbmNlPSIxMCIgZ3VpZGV0b2xlcmFuY2U9IjEwIiBpZD0ibmFtZWR2aWV3MTIzMzE3IiBpbmtzY2FwZTpjdXJyZW50LWxheWVyPSJzdmcxMjMzMTUiIGlua3NjYXBlOmN4PSIzNS4yMjkxMiIgaW5rc2NhcGU6Y3k9IjI0LjA5NjcyMyIgaW5rc2NhcGU6cGFnZW9wYWNpdHk9IjAiIGlua3NjYXBlOnBhZ2VzaGFkb3c9IjIiIGlua3NjYXBlOndpbmRvdy1oZWlnaHQ9IjEwMTciIGlua3NjYXBlOndpbmRvdy1tYXhpbWl6ZWQ9IjEiIGlua3NjYXBlOndpbmRvdy13aWR0aD0iMTkyMCIgaW5rc2NhcGU6d2luZG93LXg9Ii04IiBpbmtzY2FwZTp3aW5kb3cteT0iLTgiIGlua3NjYXBlOnpvb209IjE3Ljk4NTEyOCIgb2JqZWN0dG9sZXJhbmNlPSIxMCIgcGFnZWNvbG9yPSIjZmZmZmZmIiBzaG93Z3JpZD0iZmFsc2UiPiYjeGE7CTwvc29kaXBvZGk6bmFtZWR2aWV3PiYjeGE7PGcgaWQ9ImcxMjMzMTMiPiYjeGE7CTx0aXRsZSBpZD0idGl0bGUxMjMzMDYiPlBhZ2UtMTwvdGl0bGU+JiN4YTsJPGcgaWQ9InNoYXBlMjkyNy0xIj4mI3hhOwkJPHRpdGxlIGlkPSJ0aXRsZTEyMzMwOCI+Q29uZGl0aW9uczwvdGl0bGU+JiN4YTsJCTxwYXRoIGlkPSJwYXRoMTIzMzEwIiBpbmtzY2FwZTpjb25uZWN0b3ItY3VydmF0dXJlPSIwIiBzdHlsZT0iZmlsbDojMDBCQ0YyOyIgZD0iTTAsMTguMDhMMjYuNDIsMGwyNi40MiwxOC4wOEwyNi40MiwzNi4xNSAgICBMMCwxOC4wOHoiLz4mI3hhOwk8L2c+JiN4YTs8L2c+JiN4YTs8L3N2Zz4=;" vertex="1" parent="1">
          <mxGeometry x="153.5" y="285.8" width="53" height="36" as="geometry" />
        </mxCell>
        <mxCell id="OoRH-c_TX8An31oA8qig-139" value="close browser" style="shape=image;html=1;verticalAlign=top;verticalLabelPosition=bottom;labelBackgroundColor=#ffffff;imageAspect=0;aspect=fixed;image=https://cdn4.iconfinder.com/data/icons/essential-3/32/388-Browser_Cancel-128.png" vertex="1" parent="1">
          <mxGeometry x="56" y="500" width="50" height="50" as="geometry" />
        </mxCell>
        <mxCell id="OoRH-c_TX8An31oA8qig-144" style="edgeStyle=orthogonalEdgeStyle;rounded=0;orthogonalLoop=1;jettySize=auto;html=1;" edge="1" parent="1" source="OoRH-c_TX8An31oA8qig-142" target="OoRH-c_TX8An31oA8qig-139">
          <mxGeometry relative="1" as="geometry" />
        </mxCell>
        <mxCell id="OoRH-c_TX8An31oA8qig-142" value="logout" style="shape=image;html=1;verticalAlign=top;verticalLabelPosition=bottom;labelBackgroundColor=#ffffff;imageAspect=0;aspect=fixed;image=https://cdn2.iconfinder.com/data/icons/bitsies/128/Exit-128.png" vertex="1" parent="1">
          <mxGeometry x="51" y="385" width="60" height="60" as="geometry" />
        </mxCell>
        <mxCell id="OoRH-c_TX8An31oA8qig-150" style="edgeStyle=orthogonalEdgeStyle;rounded=0;orthogonalLoop=1;jettySize=auto;html=1;" edge="1" parent="1" source="OoRH-c_TX8An31oA8qig-146" target="OoRH-c_TX8An31oA8qig-147">
          <mxGeometry relative="1" as="geometry" />
        </mxCell>
        <mxCell id="OoRH-c_TX8An31oA8qig-146" value="logout" style="shape=image;html=1;verticalAlign=top;verticalLabelPosition=bottom;labelBackgroundColor=#ffffff;imageAspect=0;aspect=fixed;image=https://cdn2.iconfinder.com/data/icons/bitsies/128/Exit-128.png" vertex="1" parent="1">
          <mxGeometry x="560" y="98" width="60" height="60" as="geometry" />
        </mxCell>
        <mxCell id="OoRH-c_TX8An31oA8qig-147" value="close browser" style="shape=image;html=1;verticalAlign=top;verticalLabelPosition=bottom;labelBackgroundColor=#ffffff;imageAspect=0;aspect=fixed;image=https://cdn4.iconfinder.com/data/icons/essential-3/32/388-Browser_Cancel-128.png" vertex="1" parent="1">
          <mxGeometry x="670" y="103" width="50" height="50" as="geometry" />
        </mxCell>
        <mxCell id="OoRH-c_TX8An31oA8qig-151" value="read scv file" style="verticalLabelPosition=bottom;html=1;verticalAlign=top;strokeWidth=1;align=center;outlineConnect=0;dashed=0;outlineConnect=0;shape=mxgraph.aws3d.file;aspect=fixed;strokeColor=#292929;" vertex="1" parent="1">
          <mxGeometry x="589.2" y="251.2" width="30.8" height="70.6" as="geometry" />
        </mxCell>
      </root>
    </mxGraphModel>
  </diagram>
</mxfile>
